<svg id="Textos_banners" data-name="Textos banners" xmlns="http://www.w3.org/2000/svg" viewBox="0 0 1201.08 897.98"><defs><style>.cls-1{fill:#bc77c6;}.cls-2{fill:#cc9ed2;}</style></defs><path class="cls-1" d="M1779.84,1332.25a64,64,0,0,1-64,64H1346.09a14.22,14.22,0,0,0-14.22,14.22V1566.9a14.23,14.23,0,0,0,14.22,14.23h369.75a64,64,0,0,1,64,64v134.54a14.22,14.22,0,0,0,22.11,11.83l436.46-291a14.23,14.23,0,0,0,0-23.67l-436.46-291a14.22,14.22,0,0,0-22.11,11.83Z" transform="translate(-1206.92 -895.92)"/><path class="cls-2" d="M2391.54,1370.54l-671.62-465a54,54,0,0,0-66.11,3.57c-12.17,10.45-18.56,26.16-18.63,42.19l-1.13,246.12a37,37,0,0,1-37,37l-353.21.6a37,37,0,0,0-37,37v297.8a37,37,0,0,0,37,37h10.71a7.14,7.14,0,0,0,7-8.42,63.83,63.83,0,0,1-.8-10v-199.1a64,64,0,0,1,64-64h369.75a14.21,14.21,0,0,0,14.22-14.22V1160c0-20.79,9-41,25.74-53.41a64,64,0,0,1,73.76-1.93l496.24,330.83a63.63,63.63,0,0,1,24.13,30.19,7.18,7.18,0,0,0,10.85,3.49l52.09-37.07A37,37,0,0,0,2391.54,1370.54Z" transform="translate(-1206.92 -895.92)"/></svg>