<svg id="Textos_banners" data-name="Textos banners" xmlns="http://www.w3.org/2000/svg" viewBox="0 0 789.01 792.72"><defs><style>.cls-1{fill:#cc9ed2;}.cls-2{fill:#bc77c6;}</style></defs><path class="cls-1" d="M1209.87,795.8c-156.79-3.22-293.94,80.85-365.28,206.38-3.4,6,4.74,11.75,9.26,6.53,73.69-84.94,185.57-136.6,309.09-128.62,185.72,12,335.8,159.93,348.39,343.45,10.53,153.52-74.37,289-201.78,354.18-6.08,3.11-2.4,12.32,4.18,10.46,173.91-49.12,300.46-209.11,296.16-397.73C1605,975.56,1427.31,800.26,1209.87,795.8Z" transform="translate(-820.99 -795.71)"/><path class="cls-2" d="M1138,935.91c-174.77,0-317,140.53-317,313.26s142.19,313.25,317,313.25,317-140.52,317-313.25S1312.73,935.91,1138,935.91ZM996.21,1110.48c31.7,0,57.39,25.4,57.39,56.72s-25.69,56.73-57.39,56.73-57.4-25.4-57.4-56.73S964.51,1110.48,996.21,1110.48Zm40.17,106.25v15.18a2,2,0,0,1-2.44,1.91,91.31,91.31,0,0,0-9.59-1.74,2,2,0,0,1-1.74-1.94v-7.27a2,2,0,0,1,1.09-1.75,63.5,63.5,0,0,0,9.47-5.94A2,2,0,0,1,1036.38,1216.73Zm96.14,115a19.15,19.15,0,0,1-9.47-2.27l-64.86-30.35,4.88,168.76H941.39l-9.18-168.76s-11.77-54.74,57.4-62.68h11.48a109.38,109.38,0,0,1,71.17,22.69l53.38,28.36,38.45-61.55a19.37,19.37,0,0,1,26.4-6.24,18.88,18.88,0,0,1,6,26.1l-47.64,76.86A19.29,19.29,0,0,1,1132.52,1331.71Zm109.16-191.86L1199,1213.22a3.82,3.82,0,0,1-5.26,1.34l-.11-.07a3.73,3.73,0,0,1-1.32-5.08l42.77-73.3a3.81,3.81,0,0,1,5.15-1.4h0A3.74,3.74,0,0,1,1241.68,1139.85Zm112.11,128.4A6.78,6.78,0,0,1,1347,1275H1197.41a6.74,6.74,0,0,1-5.84-10.22l.09-.14a6.84,6.84,0,0,1,5.83-3.25h135.7a6.78,6.78,0,0,0,6.82-6.74V1062.76a6.78,6.78,0,0,0-6.82-6.74H1042.91a6.78,6.78,0,0,0-6.81,6.74v44.88a6.81,6.81,0,0,1-10.15,5.88l-.14-.08a6.78,6.78,0,0,1-3.49-5.88v-58.42a6.77,6.77,0,0,1,6.82-6.73H1347a6.78,6.78,0,0,1,6.82,6.73Z" transform="translate(-820.99 -795.71)"/></svg>