<svg xmlns="http://www.w3.org/2000/svg" viewBox="0 0 3300 2221">
  <defs>
    <style>
      .a79d01c4-0446-40c2-92ca-2004703c3adf {
        fill: #dcedec;
      }

      .b6902758-ae33-4ee3-a061-3d67385a5b65 {
        fill: none;
      }
    </style>
  </defs>
  <title>pagina web-servicios-derecha</title>
  <g id="f0db752b-1dec-4fab-9f3f-2b23aca0d5aa" data-name="Textos banners">
    <path class="a79d01c4-0446-40c2-92ca-2004703c3adf" d="M3278.89209,100.6228c5.314-2.58178,12.81348-6.2605,21.10791-10.251V58.95361l-53.42334,26.59961a4.14568,4.14568,0,0,0-2.29785,3.71094v30.4292a4.14608,4.14608,0,0,0,2.3042,3.71435l53.417,26.48V118.26343c-8.29-3.96509-15.78613-7.62085-21.1001-10.18823A4.13912,4.13912,0,0,1,3278.89209,100.6228Z"/>
    <g>
      <path class="b6902758-ae33-4ee3-a061-3d67385a5b65" d="M3243.89551,269.6853a4.146,4.146,0,0,1-2.3042-3.71411V235.54175a4.14567,4.14567,0,0,1,2.29785-3.71094L3300,203.89307V0H3184V2221h116V297.49756Z"/>
      <path class="b6902758-ae33-4ee3-a061-3d67385a5b65" d="M3276.2124,254.353c5.88233,2.84179,14.43994,7.01806,23.7876,11.47046V235.35938c-9.35156,4.481-17.91309,8.6831-23.79541,11.541A4.13931,4.13931,0,0,0,3276.2124,254.353Z"/>
      <path class="a79d01c4-0446-40c2-92ca-2004703c3adf" d="M3241.59131,235.54175v30.42944a4.146,4.146,0,0,0,2.3042,3.71411L3300,297.49756V265.82349c-9.34766-4.4524-17.90527-8.62867-23.7876-11.47046a4.13931,4.13931,0,0,1-.00781-7.45264c5.88232-2.85791,14.44385-7.06006,23.79541-11.541V203.89307l-56.11084,27.93774A4.14567,4.14567,0,0,0,3241.59131,235.54175Z"/>
    </g>
    <path class="a79d01c4-0446-40c2-92ca-2004703c3adf" d="M3300,407.77734c-9.42236-4.48657-18.05713-8.70044-23.97949-11.562a4.13911,4.13911,0,0,1-.00781-7.45239c5.92236-2.87744,14.561-7.11768,23.9873-11.6333V345.66016l-56.30273,28.0332a4.14566,4.14566,0,0,0-2.29786,3.71094v30.4292a4.14609,4.14609,0,0,0,2.3042,3.71435L3300,439.45532Z"/>
    <path class="a79d01c4-0446-40c2-92ca-2004703c3adf" d="M3302,703.03955c-11.45459-5.40185-22.30273-10.70264-29.332-14.09912a4.139,4.139,0,0,1-.00781-7.45239c7.0288-3.41529,17.88086-8.74854,29.33984-14.18555V635.72l-61.65527,30.69849a4.14475,4.14475,0,0,0-2.29785,3.71093v30.4292a4.14521,4.14521,0,0,0,2.30419,3.71436L3302,734.834Z"/>
    <path class="a79d01c4-0446-40c2-92ca-2004703c3adf" d="M3296,553.42969c-8.90918-4.251-17.02051-8.2085-22.667-10.93653a4.1393,4.1393,0,0,1-.00781-7.45263c5.64648-2.74341,13.76123-6.72534,22.6748-11.00391V492.59131L3241.00977,519.971a4.14565,4.14565,0,0,0-2.29786,3.71093v30.42945a4.146,4.146,0,0,0,2.3042,3.71411L3296,585.08228Z"/>
    <path class="a79d01c4-0446-40c2-92ca-2004703c3adf" d="M3300,849.64111c-11.70654-5.51342-22.84961-10.95874-30.01953-14.42285a4.13916,4.13916,0,0,1-.00781-7.45263c7.16894-3.4834,18.3164-8.96241,30.02734-14.51124V781.65527L3237.65723,812.696a4.14477,4.14477,0,0,0-2.29785,3.71094v30.42945a4.14512,4.14512,0,0,0,2.30419,3.71411L3300,881.45239Z"/>
    <path class="a79d01c4-0446-40c2-92ca-2004703c3adf" d="M3300,991.594c-11.77686-5.54419-23.00244-11.03027-30.21143-14.51342a4.13912,4.13912,0,0,1-.0083-7.4524c7.209-3.50244,18.43848-9.02221,30.21973-14.60229V923.42236l-62.53467,31.13623a4.14479,4.14479,0,0,0-2.29785,3.71094v30.42932a4.14483,4.14483,0,0,0,2.3042,3.71411L3300,1023.40991Z"/>
    <path class="a79d01c4-0446-40c2-92ca-2004703c3adf" d="M3300,1139.13354c-12.73926-5.96228-25.14307-12.02783-32.89893-15.77526a4.13922,4.13922,0,0,1-.0083-7.45252c7.75537-3.76794,20.16358-9.871,32.90723-15.87207v-31.67187l-65.22266,32.47436a4.14522,4.14522,0,0,0-2.29736,3.71094v30.42944a4.1451,4.1451,0,0,0,2.3042,3.71411L3300,1171.0199Z"/>
    <path class="a79d01c4-0446-40c2-92ca-2004703c3adf" d="M3300,1272.58521c-12.331-5.78626-24.22559-11.60083-31.74707-15.23511a4.139,4.139,0,0,1-.0083-7.45239c7.52148-3.6543,19.41992-9.50477,31.75537-15.32862v-31.642l-64.0708,31.901a4.14514,4.14514,0,0,0-2.29736,3.71081v30.42944a4.14484,4.14484,0,0,0,2.3042,3.71412L3300,1304.4408Z"/>
    <path class="a79d01c4-0446-40c2-92ca-2004703c3adf" d="M3300,1420.12036c-13.27148-6.189-26.36768-12.59473-34.43457-16.49255a4.13907,4.13907,0,0,1-.0083-7.45252c8.06689-3.91919,21.16748-10.36438,34.44287-16.59362v-31.715l-66.7583,33.239a4.14521,4.14521,0,0,0-2.29736,3.71094v30.42944a4.14511,4.14511,0,0,0,2.3042,3.71412L3300,1452.05078Z"/>
    <path class="a79d01c4-0446-40c2-92ca-2004703c3adf" d="M3300,1572.52612c-9.38086-4.46777-17.97363-8.661-23.87354-11.51172a4.13911,4.13911,0,0,1-.0083-7.45239c5.90039-2.8667,14.49659-7.08594,23.88184-11.58252v-31.46777l-56.19678,27.98059a4.14474,4.14474,0,0,0-2.29785,3.71082v30.42944a4.14471,4.14471,0,0,0,2.3042,3.71411L3300,1604.2019Z"/>
    <path class="a79d01c4-0446-40c2-92ca-2004703c3adf" d="M3300,1720.08093c-10.4165-4.93823-20.10156-9.66784-26.561-12.78894a4.13911,4.13911,0,0,1-.0083-7.45239c6.46-3.13843,16.14844-7.89722,26.56934-12.86743v-31.521L3241.11572,1684.77a4.14473,4.14473,0,0,0-2.29785,3.71081v30.42945a4.14485,4.14485,0,0,0,2.3042,3.71411L3300,1751.81177Z"/>
    <path class="a79d01c4-0446-40c2-92ca-2004703c3adf" d="M3300,1862.03442c-10.48975-4.97119-20.25391-9.7395-26.75293-12.87988a4.13906,4.13906,0,0,1-.0083-7.45251c6.49951-3.15784,16.26709-7.95569,26.76123-12.95911v-31.52478l-59.07617,29.41418a4.14506,4.14506,0,0,0-2.29785,3.71094v30.42945a4.145,4.145,0,0,0,2.3042,3.71411L3300,1893.76941Z"/>
    <path class="a79d01c4-0446-40c2-92ca-2004703c3adf" d="M3300,2009.58234c-11.49414-5.41968-22.38916-10.74311-29.44043-14.15015a4.13907,4.13907,0,0,1-.0083-7.45251c7.05127-3.426,17.95019-8.78217,29.44873-14.237v-31.58509L3238.23584,1972.91a4.14549,4.14549,0,0,0-2.29736,3.71094v30.42945a4.145,4.145,0,0,0,2.3042,3.71411L3300,2041.37933Z"/>
    <path class="a79d01c4-0446-40c2-92ca-2004703c3adf" d="M3300,2143.03058c-11.06738-5.23-21.47363-10.31348-28.28906-13.60651a4.1392,4.1392,0,0,1-.00781-7.45251c6.81542-3.31128,17.22509-8.42621,28.29687-13.69007V2076.723l-60.6123,30.179a4.14579,4.14579,0,0,0-2.29786,3.71093v30.42945a4.14551,4.14551,0,0,0,2.30469,3.71411L3300,2174.80029Z"/>
  </g>
</svg>
