<svg id="Textos_banners" data-name="Textos banners" xmlns="http://www.w3.org/2000/svg" viewBox="0 0 690.91 826.04"><defs><style>.cls-1{fill:#52d2bc;}.cls-2{fill:#97e0d4;}</style></defs><path class="cls-1" d="M1240.67,1048.69a443.7,443.7,0,0,1-259.83-85.28,444,444,0,0,1-259.52,86.36l.31,150.59c.38,179.77,107.12,334.48,260.55,404.69,153.11-70.85,259.19-226,258.81-405.78Zm-204.31,173.54a58.75,58.75,0,0,1-24.87,48v81a35,35,0,0,1-35,35h0a35,35,0,0,1-35-35V1271a58.76,58.76,0,0,1-25.91-48.76h0a58.81,58.81,0,0,1,58.81-58.82h3.11a58.81,58.81,0,0,1,58.82,58.82Z" transform="translate(-700.97 -830.71)"/><path class="cls-2" d="M1391.86,946.28c.11-3,0-10-4.67-13.48-2.84-2.15-6.2-2.09-7.77-2.07-10,.13-20.11-2.3-30.06-1-15.42,1.95-159.63,7-284.48-52.34a439,439,0,0,1-73.09-44.05c-.93-1.19-2.39-2.67-4.09-2.59-2,.1-3.33,2.24-3.58,2.59-3.17,4.58-41.5,28.5-73.09,45.09-12.56,6.6-62.24,32.1-133.78,51.82-20.17,5.56-73.59,15.55-74.62,16.58a4.78,4.78,0,0,0-1,3.63c.29,6.27.19,38.49-.52,46.64-.24,2.76,0,5.53,0,8.29,0,3.37-.1,5.06,1,6.22,1.48,1.51,4.08,1.19,5.18,1C784,1002,843.06,980.48,843.06,980.48c17.43-6.35,16-5.78,17.11-6.22a797.72,797.72,0,0,0,111.84-52,15.5,15.5,0,0,1,1.75-1.47,14.19,14.19,0,0,1,2.42-1.44q5.39-3.81,10.69-7.75a510.67,510.67,0,0,0,112.6,63c2.88.91,5.82,1.82,8.85,2.73,64.29,19.38,125.44,28.49,159,32.65a106.76,106.76,0,0,0,10.91,1.15c2.88.15,5.61.18,8.15.11l.36,176A488.1,488.1,0,0,1,1264,1342c-62,194.42-230.27,288.91-280.48,314.73a489.34,489.34,0,0,0,77.8-25.39c98.69-41.69,160.06-106,188.1-139.72,10.44-12.55,18.07-22.93,23-29.74,55.89-77.18,76.55-152.86,88.89-198.47,5.64-20.84,8.79-35.9,12.44-53.38,8.59-41.1,12-81,17.62-248.23C1391.54,955.87,1391.72,950.47,1391.86,946.28Z" transform="translate(-700.97 -830.71)"/></svg>