<svg id="bb9a7685-52ca-4385-9e86-4d61c2ac5939" data-name="Capa 1" xmlns="http://www.w3.org/2000/svg" viewBox="0 0 2582 2274">
  <defs>
    <style>
      .b5697289-1957-43a8-a74c-a614ca998cab {
        fill: #52d2bc;
      }

      .fc329832-8bb9-4c20-a034-8d0942451c27 {
        fill: #97e0d4;
      }
    </style>
  </defs>
  <title>store_icono_boton_descarga_sticker_whatsapp</title>
  <g>
    <path class="b5697289-1957-43a8-a74c-a614ca998cab" d="M1577.595,793.52133c-126.69631-126.50315-294.85289-196.31105-474.0013-196.5042-369.28946,0-669.92761,300.63815-670.12,669.92761A668.99591,668.99591,0,0,0,522.95219,1601.715l-95.07132,347.11262,355.21184-93.1421a668.334,668.334,0,0,0,320.11551,81.57158h.38553c369.28946,0,669.73366-300.445,669.92682-669.92682C1773.71373,1088.37422,1704.09821,920.21764,1577.595,793.52133ZM1094.36476,1830.36139h-.22075a563.34,563.34,0,0,1-287.04538-78.597l-20.604-12.21307-213.465,55.966L630.03158,1587.475l-13.4272-21.327a562.25968,562.25968,0,0,1-86.22076-300.03266c.123-310.84868,253.11038-563.76433,564.1948-563.76433,150.64547.05834,292.22831,58.78767,398.72666,165.34278,106.48652,106.56221,165.08025,248.22153,165.03925,398.86385C1658.20636,1577.426,1405.21345,1830.36139,1094.36476,1830.36139Z"/>
    <path class="b5697289-1957-43a8-a74c-a614ca998cab" d="M922.3781,982.43512c-12.7027-28.23524-26.068-28.80049-38.14957-29.29711-9.88758-.4205-21.19594-.39305-32.49117-.39305-11.30892,0-29.67665,4.24358-45.20834,21.20956-15.54556,16.96687-59.3455,57.98031-59.3455,141.39286,0,83.42061,60.76155,164.02451,69.22663,175.3472,8.47993,11.30209,117.29254,187.95468,289.608,255.90811,143.2217,56.47614,172.36636,45.24359,203.45126,42.41344,31.0849-2.82209,100.31152-40.99941,114.435-80.59047,14.13108-39.58508,14.13108-73.51792,9.89443-80.60389-4.23664-7.06567-15.54557-11.30926-32.499-19.7818-16.96007-8.48-100.31152-49.49971-115.84908-55.15791-15.54558-5.651-26.84845-8.47344-38.15738,8.50059-11.30209,16.95314-43.77273,55.13046-53.66755,66.43942-9.88759,11.32955-19.78184,12.74418-36.73546,4.26417-16.96007-8.50745-71.56586-26.39264-136.34285-84.144-50.40318-44.93858-84.42779-100.43463-94.32261-117.40986-9.88757-16.95314-1.05559-26.13658,7.44508-34.58972,7.61757-7.5969,16.96007-19.79553,25.44019-29.69045,8.4592-9.9012,11.28135-16.96687,16.93249-28.27613,5.658-11.31612,2.829-21.21731-1.40765-29.69821-4.24349-8.48-37.19117-92.32172-52.26713-125.84749"/>
    <path class="fc329832-8bb9-4c20-a034-8d0942451c27" d="M1270.41444,253.19972C923.91027,246.00179,620.8,433.99644,463.14208,714.695c-7.52068,13.39,10.469,26.26881,20.46506,14.60986,162.849-189.93869,410.11207-305.45565,683.11-287.61859,410.4345,26.81686,742.12837,357.6296,769.94774,767.99737,23.27321,343.30677-164.37608,646.13822-445.95224,792.00782-13.43439,6.95964-5.2924,27.5541,9.25535,23.39688,384.34193-109.831,664.00678-467.6103,654.52051-889.38076C2143.68061,655.1766,1750.96331,263.18217,1270.41444,253.19972Z"/>
  </g>
</svg>
