<svg xmlns="http://www.w3.org/2000/svg" viewBox="0 0 1711.6 2367.89"><defs><style>.cls-1{isolation:isolate;}.cls-2{fill:#00d2bb;}.cls-2,.cls-3,.cls-4{mix-blend-mode:multiply;}.cls-3{fill:#69e0d4;}.cls-4{fill:#d5edec;}</style></defs><g class="cls-1"><g id="elementos_graficos" data-name="elementos graficos"><path class="cls-2" d="M-604.75,1846.89h387.67a54.06,54.06,0,0,0,50.76-35.44L663.06-448.3A54.07,54.07,0,0,0,612.3-521H224.64a54.06,54.06,0,0,0-50.76,35.44L-655.51,1774.19A54.07,54.07,0,0,0-604.75,1846.89Z" transform="translate(658.87 521)"/><path class="cls-3" d="M-411.59,1846.89H-23.92a54.06,54.06,0,0,0,50.76-35.44L856.22-448.3A54.07,54.07,0,0,0,805.46-521H417.8A54.06,54.06,0,0,0,367-485.56L-462.35,1774.19A54.07,54.07,0,0,0-411.59,1846.89Z" transform="translate(658.87 521)"/><path class="cls-4" d="M-218.43,1846.89H169.24A54.06,54.06,0,0,0,220,1811.45L1049.37-448.3c13-35.29-13.16-72.7-50.76-72.7H611a54.06,54.06,0,0,0-50.76,35.44L-269.19,1774.19A54.07,54.07,0,0,0-218.43,1846.89Z" transform="translate(658.87 521)"/></g></g></svg>