<svg id="Capa_1" data-name="Capa 1" xmlns="http://www.w3.org/2000/svg" viewBox="0 0 449.66 100.31"><defs><style>.cls-1{fill:#dcc5dd;}</style></defs><path class="cls-1" d="M173.6,179.2a39.37,39.37,0,0,0-47.7,28.7h0a39.36,39.36,0,1,0,47.7-28.7Zm9.7,55h0a2.38,2.38,0,0,1-3.4.8h0c-9.4-5.7-21.2-7-35.2-3.9a2.5,2.5,0,0,1-3-1.9,2.46,2.46,0,0,1,1.9-3h0c15.3-3.5,28.3-2,38.9,4.5A2.68,2.68,0,0,1,183.3,234.2Zm4.9-10.9h0a3.09,3.09,0,0,1-4.3,1c-10.8-6.6-27.2-8.5-39.9-4.7a3.13,3.13,0,1,1-1.8-6h0c14.5-4.4,32.6-2.3,45,5.3a3.32,3.32,0,0,1,1,4.4Zm5.5-12.7a3.74,3.74,0,0,1-5.1,1.3h0c-12.9-7.7-34.2-8.4-46.5-4.6a3.76,3.76,0,1,1-2.2-7.2h0c14.1-4.3,37.7-3.5,52.5,5.4A3.67,3.67,0,0,1,193.7,210.6Z" transform="translate(-124.74 -158.69)"/><path class="cls-1" d="M173.4,158.7a50.88,50.88,0,0,0-45.6,26.1.71.71,0,0,0,.3,1,.65.65,0,0,0,.9-.2,46.74,46.74,0,1,1,56.9,72,.78.78,0,0,0-.3,1,.91.91,0,0,0,.8.4,51.14,51.14,0,0,0-13-100.3Z" transform="translate(-124.74 -158.69)"/><path class="cls-1" d="M467.6,166.3a8,8,0,1,0,8,8h0A8,8,0,0,0,467.6,166.3Z" transform="translate(-124.74 -158.69)"/><path class="cls-1" d="M286.6,197c-12.6-3-14.8-5.1-14.8-9.5,0-4.2,3.9-7,9.8-7,5.7,0,11.3,2.1,17.2,6.5a.83.83,0,0,0,1.2-.2h0l6.1-8.7a.72.72,0,0,0-.2-1.1,37.34,37.34,0,0,0-24.2-8.4c-13.6,0-23.1,8.2-23.1,19.8,0,12.5,8.2,16.9,22.3,20.4,12,2.8,14.1,5.1,14.1,9.3,0,4.6-4.1,7.5-10.7,7.5-7.3,0-13.3-2.5-20-8.3a1.42,1.42,0,0,0-.6-.2.86.86,0,0,0-.6.3l-6.9,8.2a.71.71,0,0,0,.1,1.1,40.74,40.74,0,0,0,27.8,10.6c14.6,0,24.1-8,24.1-20.4,0-10.4-6.3-16.2-21.6-19.9Z" transform="translate(-124.74 -158.69)"/><path class="cls-1" d="M341.3,184.6h0c-6.4,0-11.6,2.5-15.9,7.6v-5.8a.79.79,0,0,0-.8-.8H313.3a.79.79,0,0,0-.8.8v64.1a.79.79,0,0,0,.8.8h11.3a.79.79,0,0,0,.8-.8V230.3a20.22,20.22,0,0,0,15.9,7.2c11.8,0,23.7-9.1,23.7-26.4S353.1,184.6,341.3,184.6ZM351.9,211c0,8.8-5.4,15-13.2,15s-13.5-6.5-13.5-15,5.8-15,13.5-15,13.2,6.3,13.2,15Z" transform="translate(-124.74 -158.69)"/><path class="cls-1" d="M395.6,184.6h0c-15.2,0-27.1,11.7-27.1,26.6s11.8,26.3,26.9,26.3,27.2-11.7,27.2-26.5S410.8,184.6,395.6,184.6Zm0,41.5c-8.1,0-14.2-6.5-14.2-15.1s5.9-14.9,14-14.9,14.3,6.5,14.3,15.1-5.9,14.9-14.1,14.9Z" transform="translate(-124.74 -158.69)"/><path class="cls-1" d="M455.1,185.6H442.7V172.9a.79.79,0,0,0-.8-.8H430.6a.79.79,0,0,0-.8.8v12.7h-5.4a.79.79,0,0,0-.8.8v9.7a.79.79,0,0,0,.8.8h5.4V222c0,10.1,5,15.3,15,15.3a20.82,20.82,0,0,0,10.6-2.6.67.67,0,0,0,.4-.7v-9.2a.75.75,0,0,0-.4-.7.6.6,0,0,0-.8,0,13.7,13.7,0,0,1-6.6,1.6c-3.6,0-5.2-1.6-5.2-5.3V197h12.4a.79.79,0,0,0,.8-.8v-9.7c-.1-.5-.4-.9-.9-.9Z" transform="translate(-124.74 -158.69)"/><path class="cls-1" d="M498.3,185.7v-1.6c0-4.6,1.8-6.6,5.7-6.6a17.71,17.71,0,0,1,6.4,1.2.83.83,0,0,0,1-.5v-9.8a.76.76,0,0,0-.6-.8,29.68,29.68,0,0,0-9.4-1.3c-10.4,0-15.9,5.9-15.9,16.9v2.4h-5.4a.79.79,0,0,0-.8.8v9.7a.79.79,0,0,0,.8.8h5.4v38.7a.79.79,0,0,0,.8.8h11.3a.79.79,0,0,0,.8-.8h0V197H509l16.1,38.7c-1.8,4.1-3.6,4.9-6.1,4.9a13.5,13.5,0,0,1-6.2-1.8,1.48,1.48,0,0,0-.7-.1,1,1,0,0,0-.5.4l-3.8,8.4a.84.84,0,0,0,.4,1.1,24.13,24.13,0,0,0,12,3.1c8.3,0,12.9-3.9,17-14.3l19.6-50.5a.81.81,0,0,0-.5-1.1c-.1,0-.2-.1-.3-.1H544.3a.76.76,0,0,0-.8.6l-12,34.3-13.2-34.4a.79.79,0,0,0-.8-.5Z" transform="translate(-124.74 -158.69)"/><path class="cls-1" d="M473.2,185.6H462a.79.79,0,0,0-.8.8v49.2a.79.79,0,0,0,.8.8h11.3a.79.79,0,0,0,.8-.8h0V186.4a.88.88,0,0,0-.9-.8Z" transform="translate(-124.74 -158.69)"/><path class="cls-1" d="M566.5,185.5a8,8,0,1,0,7.9,8h0A8,8,0,0,0,566.5,185.5Zm-.1,15.1a7.15,7.15,0,1,1,7.1-7.2h0a7,7,0,0,1-6.9,7.2Z" transform="translate(-124.74 -158.69)"/><path class="cls-1" d="M568.2,194.3a2.38,2.38,0,0,0,1.9-2.5c0-1.7-1.3-2.7-3.2-2.7h-3.7v8.3h1.6v-2.9h1.7l2,2.9h1.9l-2.2-3.1Zm-1.3-1.2h-2.1v-2.6h2.1c1,0,1.6.5,1.6,1.3s-.6,1.3-1.6,1.3Z" transform="translate(-124.74 -158.69)"/></svg>