<svg id="Capa_1" data-name="Capa 1" xmlns="http://www.w3.org/2000/svg" viewBox="0 0 948 1199.26"><defs><style>.cls-1{fill:#cc9ed2;}.cls-2{fill:#bc77c6;}</style></defs><g id="a1152a5c-124d-4791-a315-e450b7733876"><path class="cls-1" d="M1173.52,411.46c-31-40.79-144.27-188.78-207.47-254.76a89.22,89.22,0,0,0-23-17c-28.28-14.81-57-10.9-65-9.7-42,6.28-67.14,34.45-73,41a128.89,128.89,0,0,0-18,22c-6.44,9.95-9.55,17.79-14,29-1.87,4.71-6.77,17.06-5,18,.47.25,1.31-.37,2-1,1.06-1.86,2.75-4.69,5-8,5.69-8.36,25.53-37.48,59.63-44.78A75.93,75.93,0,0,1,876.3,189a93.58,93.58,0,0,1,13.83,6.38C932.08,219.61,985,293,985,293c58.89,81.66,58.11,77.65,65.3,92,15,30.06,30.1,59.63,30.1,100.35,0,37.89-10.67,73.5-30.1,100.31L1031.23,612a10.93,10.93,0,0,1-2.33,5.61L559,1183a495.79,495.79,0,0,1-57,38c-60.29,34.43-110,46-124,49-28.56,6.18-54,11.4-86,5-21.77-4.35-35.11-11.79-36-10-1.72,3.48,43.95,40.6,106,56,12.51,3.1,73.4,17.17,144-7,58.42-20,95.65-56.66,114.36-76.17,76.71-80,274.51-322.46,528.29-657.6,7.92-7.66,42.15-42.13,43.43-96.11C1192.9,449.89,1180.38,423.67,1173.52,411.46Z" transform="translate(-244.12 -128.63)"/><path class="cls-2" d="M918,626.45,736.16,399.12a11,11,0,0,0-15.52-1.73,11.26,11.26,0,0,0-1.72,1.73L333.68,880.82a11.06,11.06,0,0,0,0,13.79l92.47,115.63L515.53,1122a11,11,0,0,0,15.52,1.72,11.65,11.65,0,0,0,1.72-1.72L918,640.23A11,11,0,0,0,918,626.45ZM754.81,637.17,530.28,918c-4.81,6-11.12,9-17.42,9s-12.63-3-17.41-9c-9.64-12.06-9.64-31.57,0-43.6L719.93,593.57c9.64-12,25.25-12,34.88,0S764.43,625.13,754.81,637.17Z" transform="translate(-244.12 -128.63)"/><path class="cls-2" d="M992.52,411.33,905.12,302c-14.47-18.13-33.75-28.1-54.26-28.1s-39.76,10-54.23,28.09l-30.35,37.94a7.8,7.8,0,0,0,0,9.72l186,232.55a7.78,7.78,0,0,0,12.15,0L992.52,547C1007,528.87,1015,504.8,1015,479.18S1007,429.46,992.52,411.33Z" transform="translate(-244.12 -128.63)"/><path class="cls-2" d="M300.44,954.78l-56.15,259.89a7.4,7.4,0,0,0,5.67,8.8,7.54,7.54,0,0,0,3.83-.19l209.89-67.63a7.41,7.41,0,0,0,4.78-9.31,7.49,7.49,0,0,0-1.27-2.36L345.45,991.75l-32-40a7.41,7.41,0,0,0-13,3.06Z" transform="translate(-244.12 -128.63)"/></g></svg>