<svg id="Capa_1" data-name="Capa 1" xmlns="http://www.w3.org/2000/svg" viewBox="0 0 1125.04 1317.2"><defs><style>.cls-1{fill:#cc9ed2;}.cls-2{fill:#bc77c6;}</style></defs><g id="eb77d7b7-93e7-4aa8-afd3-af2fc0a0f507"><path class="cls-1" d="M1009.2,131.24H287.76C176.31,131.24,86,237,86,367.5h0c0,8.78,9.43,13,14.21,6.22,44.74-63.12,112.22-103.38,187.58-103.38H848.49c134.59,0,243.71,127.75,243.71,285.34v656.5c0,88.24-34.39,167.25-88.31,219.63-5.76,5.6-2.18,16.63,5.31,16.63h0c111.45,0,201.8-105.78,201.8-236.26V367.51C1211,237,1120.65,131.24,1009.2,131.24Z" transform="translate(-85.96 -131.24)"/><path class="cls-2" d="M844,394.6H283.29c-88.15,0-159.88,84-159.88,187.19v656.5c0,103.22,71.73,187.19,159.88,187.19H844c88.15,0,159.87-84,159.87-187.19V581.79C1003.9,478.57,932.18,394.6,844,394.6Zm-31.44,853a33.87,33.87,0,0,1,.77,27.85c-3.71,8.8-10.93,14.23-18.82,14.23H676.43c-7.31,0-14.1-4.7-18-12.46-23.25-45.62-102.23-200.92-102.23-200.92S477.24,1231.56,454,1277.24c-4,7.76-10.83,12.46-18.05,12.46H317.89c-7.9,0-15.11-5.49-18.92-14.23a33.87,33.87,0,0,1,.87-27.85c50.29-98.87,171.77-337.77,171.77-337.77S350.13,671,299.84,572.08a33.87,33.87,0,0,1-.87-27.85c3.81-8.79,11-14.23,18.92-14.23H436c7.22,0,14.06,4.7,18.05,12.46,23.2,45.62,102.12,200.92,102.12,200.92s79-155.24,102.23-200.92c3.94-7.76,10.73-12.46,18-12.46H794.54c7.84,0,15.11,5.5,18.82,14.23a33.72,33.72,0,0,1-.77,27.85C762.29,671,640.82,909.85,640.82,909.85S762.29,1148.75,812.59,1247.62Z" transform="translate(-85.96 -131.24)"/></g></svg>