<svg id="Capa_1" data-name="Capa 1" xmlns="http://www.w3.org/2000/svg" viewBox="0 0 1018.03 1308.62"><defs><style>.cls-1{fill:#bc77c6;}.cls-2{fill:#cc9ed2;}</style></defs><g id="a06dedb3-6b00-4f89-bc20-8dc5b775a6a8"><path class="cls-1" d="M1149.87,1320.19l-222.15-273c-10.63-13.19-26.58-13.19-37.21,0l-5.31,6.59-77.6-96.27C853.31,890.27,881,803.23,881,708.28c0-101.55-33-200.45-91.42-273-58.46-73.85-139.24-114.73-221.09-114.73C396.25,320.56,257,494.64,257,708.28c0,104.18,33,201.77,92.48,275.62,58.46,72.54,136,112.1,217.9,112.1h2.12c76.54,0,146.69-34.29,200.9-91l77.6,96.27-8.51,9.24c-10.63,13.18-10.63,34.28,0,46.15L1060.58,1431c24.45,30.33,64.84,30.33,89.29,0S1174.32,1350.52,1149.87,1320.19ZM453.64,577.72c-26.57,35.61-41.45,81.77-41.45,130.56,0,21.1,2.13,40.88,7.44,60.66,4.25,15.83-2.13,33-13.82,39.57-14.88,7.91-31.89-1.32-37.2-19.78A338.59,338.59,0,0,1,359,708.28c0-65.94,20.2-127.92,55.28-174.08,11.69-14.51,29.76-14.51,40.39,1.32C462.15,547.39,462.15,565.85,453.64,577.72Z" transform="translate(-257 -145.12)"/><path class="cls-2" d="M1232.37,1128.84c-169-195.56-237.59-277.19-242.66-286.6v-.08c-2.84-5.24-9-10.43-17-12.12a27.91,27.91,0,0,0-21.19,4.37c4.23-8.5,10.19-20.9,16.66-36.1,4.61-10.83,52.92-121.3,52.43-227.15-.54-117.14-51.07-298.51-202-382.93-21.84-12.22-77.19-42.32-154-43.09C556.48,144.05,482.13,201.91,460,219.67c-46.64,37.37-77.51,84.7-72.72,89,4.29,3.89,31.09-28,83.1-50.06,54.59-23.17,104.83-21.61,130-21,10.46.26,85.63,2.9,158.32,45.13,101.86,59.18,136,160.08,155.94,218.85,60.9,180,5.06,343.68-22.62,410.63l32.14,39.48c.81-1.11,2-2.69,3.57-4.51,3.62-4.21,5.93-6.9,9.52-9a23.86,23.86,0,0,1,13.1-3.39,25.42,25.42,0,0,1,11.9,4.51c13.21,9.34,229.9,270.44,253.55,299A112.87,112.87,0,0,1,1236,1280c2,8.11,6.75,28.47,0,51.89-3.4,11.82-8.07,18.66-7.14,19.18,1.78,1,25.86-29.07,36.9-55.28C1296.32,1223.14,1242.37,1143.17,1232.37,1128.84Z" transform="translate(-257 -145.12)"/></g></svg>