<svg id="Capa_1" data-name="Capa 1" xmlns="http://www.w3.org/2000/svg" viewBox="0 0 752.49 101.1"><defs><style>.cls-1{fill:#dcc5dd;}</style></defs><g id="fbffd524-8715-46c3-92d0-c81bb7345924"><path class="cls-1" d="M181.26,196.4l-38.1-34.32a14.33,14.33,0,0,0-20.25,1.06h0a.57.57,0,0,0,0,.81.55.55,0,0,0,.46.14,17.3,17.3,0,0,1,14.1,4.26L167.12,195a17.32,17.32,0,0,1,1.28,24.46L141.73,249.1a17.31,17.31,0,0,1-13.59,5.7.59.59,0,0,0-.59.56.61.61,0,0,0,.2.45h0A14.34,14.34,0,0,0,148,254.75h0l34.32-38.1A14.33,14.33,0,0,0,181.26,196.4Z" transform="translate(-86.82 -158.39)"/><path class="cls-1" d="M162.07,199.87,132.46,173.2a11.38,11.38,0,0,0-16.05.84L89.74,203.65a11.36,11.36,0,0,0,.83,16l29.61,26.68a11.39,11.39,0,0,0,16-.84l26.67-29.61A11.38,11.38,0,0,0,162.07,199.87Zm-52.24,11.22a2.84,2.84,0,0,1-5.67,0V208a2.84,2.84,0,0,1,5.67,0Zm9.8,9.28a2.84,2.84,0,0,1-5.67,0h0v-3.1a2.84,2.84,0,0,1,5.67,0Zm0-11.53h0a2.84,2.84,0,0,1-5.67,0h0V198.72a2.84,2.84,0,0,1,5.67,0Zm10.05,20.54a2.84,2.84,0,1,1-5.67,0v-3.09a2.84,2.84,0,0,1,5.67,0Zm0-21.21v9.62a2.84,2.84,0,0,1-5.67,0V201.3a2.84,2.84,0,0,1,5.67,0Zm0-15.37a2.84,2.84,0,0,1-5.67,0v-3.1a2.84,2.84,0,0,1,5.67,0Zm10,27.57a2.84,2.84,0,0,1-5.67,0V210.32a2.84,2.84,0,1,1,5.67,0Zm0-18.56a2.84,2.84,0,1,1-5.67,0h0v-3.09a2.84,2.84,0,0,1,5.67,0Zm9.8,9.28a2.84,2.84,0,0,1-5.67,0V208a2.84,2.84,0,0,1,5.67,0Z" transform="translate(-86.82 -158.39)"/><path id="b2494151-f32a-48aa-acb6-6c764bace345" class="cls-1" d="M508.22,231.94H500v-61h21.93A21,21,0,0,1,536,176.1a17.11,17.11,0,0,1,1.87,24.12,17.28,17.28,0,0,1-1.87,1.86,21,21,0,0,1-14.16,5.16H508.22Zm0-32.2h13.84a11,11,0,0,0,8.37-3.32,10.11,10.11,0,0,0,.36-14.29l-.36-.37a11,11,0,0,0-8.37-3.32H508.22Zm40.66-4.52q6.38-6.39,16.27-6.39t16.27,6.35a23,23,0,0,1,0,31.78q-6.37,6.34-16.27,6.35T548.88,227a22.92,22.92,0,0,1,0-31.74ZM555,222.06a14.3,14.3,0,0,0,10.16,4.09A14.11,14.11,0,0,0,575.27,222a16.18,16.18,0,0,0,0-21.9,14.4,14.4,0,0,0-24.5,10.95A14.75,14.75,0,0,0,555,222.06Zm57.74,11.25A19.87,19.87,0,0,1,598,226.92a23.35,23.35,0,0,1,0-31.7,19.87,19.87,0,0,1,14.74-6.39,19.57,19.57,0,0,1,9,2,15,15,0,0,1,6,5.11h.36l-.36-5.79V170.94H636v61h-7.91v-5.79h-.36a15,15,0,0,1-6,5.11,19.57,19.57,0,0,1-9,2.05Zm1.35-7.16a13.51,13.51,0,0,0,9.94-4.09q4.08-4.09,4.09-11t-4.09-11a14,14,0,0,0-19.81,0l0,0q-4.12,4.14-4.13,10.95t4.13,11a13.51,13.51,0,0,0,9.89,4.13Zm50.64,7.16q-9.88,0-16.27-6.35a23,23,0,0,1,0-31.78q6.38-6.35,16.27-6.35A20.82,20.82,0,0,1,677,192.24a20.14,20.14,0,0,1,7.1,8.61l-7.55,3Q673.08,196,664.18,196a13.15,13.15,0,0,0-9.66,4.26,16.08,16.08,0,0,0,0,21.64,13.15,13.15,0,0,0,9.66,4.26q9.26,0,12.77-7.84l7.37,3a20.3,20.3,0,0,1-7.24,8.57,21.21,21.21,0,0,1-12.36,3.45Zm39.22,0a18,18,0,0,1-11.73-3.84,13.13,13.13,0,0,1,.85-20.83,23.47,23.47,0,0,1,13.76-3.87q7.27,0,11.95,2.55v-1.19a9.07,9.07,0,0,0-3.32-7.37,12.36,12.36,0,0,0-8.18-2.77,13.25,13.25,0,0,0-6.52,1.62,8.45,8.45,0,0,0-4,4.43L689.2,199a16.33,16.33,0,0,1,6-6.94q4.5-3.19,11.87-3.2,8.45,0,14,4.69t5.58,13.2v25.22h-7.92v-5.79h-.36q-4.93,7.15-14.47,7.16Zm1.35-7.16a13.86,13.86,0,0,0,9.3-3.62,11,11,0,0,0,4.18-8.56q-3.49-2.73-10.51-2.73-6,0-9.08,2.47a7.28,7.28,0,0,0-3.06,5.79,5.51,5.51,0,0,0,2.79,4.86,11.5,11.5,0,0,0,6.38,1.79Zm45.6,7.16q-7.36,0-12.18-3.41a20.48,20.48,0,0,1-7.06-8.52l7.38-2.9q3.5,7.85,12,7.84a11.39,11.39,0,0,0,6.34-1.62,4.9,4.9,0,0,0,2.47-4.26c0-2.72-2-4.57-6-5.54l-8.9-2a21.73,21.73,0,0,1-8-3.88,9.17,9.17,0,0,1-3.78-7.71q0-5.53,5.17-9a21.6,21.6,0,0,1,12.27-3.45A21.27,21.27,0,0,1,761,191.35a14.34,14.34,0,0,1,6.56,7.2l-7.19,2.81q-2.43-5.55-10.07-5.54a12.29,12.29,0,0,0-6.2,1.45,4.39,4.39,0,0,0-2.52,3.92q0,3.57,5.85,4.85l8.72,2q6.2,1.37,9.17,4.69a11,11,0,0,1,3,7.5,11.41,11.41,0,0,1-4.85,9.37q-4.86,3.75-12.5,3.75Zm42.1-.68q-6.91,0-10.56-3.5t-3.64-9.88v-21.9h-7.73V190.2h7.73V177.42h8.27V190.2h10.79v7.15H787.06v21.3q0,6.82,5.93,6.82a9.25,9.25,0,0,0,3.78-.68l2.87,6.73a17.72,17.72,0,0,1-6.65,1.11Zm29,.68q-7.37,0-12.18-3.41a20.38,20.38,0,0,1-7-8.52l7.37-2.9q3.49,7.85,11.95,7.84a11.39,11.39,0,0,0,6.34-1.62,4.9,4.9,0,0,0,2.47-4.26c0-2.72-2-4.57-6-5.54l-8.9-2a21.73,21.73,0,0,1-8-3.88,9.17,9.17,0,0,1-3.78-7.71q0-5.53,5.17-9a21.6,21.6,0,0,1,12.27-3.45A21.27,21.27,0,0,1,832,191.35a14.34,14.34,0,0,1,6.56,7.2l-7.19,2.81q-2.43-5.54-10.07-5.54a12.32,12.32,0,0,0-6.2,1.45,4.39,4.39,0,0,0-2.52,3.92q0,3.57,5.85,4.85l8.72,2q6.2,1.37,9.17,4.69a11,11,0,0,1,3,7.5,11.38,11.38,0,0,1-4.85,9.37q-4.86,3.75-12.5,3.75Z" transform="translate(-86.82 -158.39)"/><path id="f926c16c-b691-4fce-b5f4-2dd8fe3fa28b" class="cls-1" d="M211.7,200.15c0-18.24,15.28-33,33.53-33a31.51,31.51,0,0,1,22.65,9.12l-6.42,6.35a22.75,22.75,0,0,0-16.23-6.48,24,24,0,0,0,0,47.92c8.62,0,13.53-3.45,16.67-6.6,2.58-2.58,4.28-6.29,4.91-11.32H245.23v-9h30.39a30.63,30.63,0,0,1,.5,5.66c0,6.79-1.82,15.15-7.8,21.07S255,233.1,245.23,233.1c-18.25,0-33.53-14.78-33.53-32.95ZM300.34,191A21.26,21.26,0,1,1,279,212.28,20.94,20.94,0,0,1,299.62,191Zm0,34.08c6.42,0,12-5.28,12-12.89s-5.6-12.89-12-12.89-12,5.22-12,12.89,5.59,12.89,12,12.89ZM346.9,191a21.26,21.26,0,1,1-21.33,21.25A20.94,20.94,0,0,1,346.18,191Zm0,34.08c6.41,0,12-5.28,12-12.89s-5.53-12.89-12-12.89-12,5.22-12,12.89S340.48,225.11,346.9,225.11ZM404,191.72H413v38.17c0,15.73-9.25,22.14-20.2,22.14a20.24,20.24,0,0,1-18.87-12.58l8.11-3.39c1.45,3.46,5,7.55,10.7,7.55,7,0,11.32-4.34,11.32-12.46v-3.08h-.31a14.45,14.45,0,0,1-11.2,4.84c-10.63,0-20.38-9.31-20.38-21.19s9.75-21.32,20.38-21.32a14.61,14.61,0,0,1,11.2,4.78H404Zm-10.69,32.83c6.35,0,11.39-5.35,11.32-12.83s-5-13-11.32-13-11.83,5.47-11.83,13,5.41,12.83,11.83,12.83Zm26,7.55V169.64h9.31V232.1Zm34.92-7c4.78,0,8-2.32,10.5-5.84l7.24,4.84a21.28,21.28,0,0,1-17.74,9.43c-12.08,0-21.08-9.37-21.08-21.26,0-12.64,9.12-21.25,20.07-21.25s16.42,8.74,18.18,13.52l1,2.39L443.91,218.7c2.2,4.21,5.54,6.41,10.32,6.41Zm-.69-25.91a11.67,11.67,0,0,0-11.15,12.16c0,.08,0,.16,0,.23l19-7.86C460.39,201,457.25,199.2,453.54,199.2Z" transform="translate(-86.82 -158.39)"/></g></svg>