<svg id="e999857f-f64d-4962-8701-aa1cbcdd517f" xmlns="http://www.w3.org/2000/svg" viewBox="0 0 2972.72 1062"><defs><style>.cls-1{isolation:isolate;}.cls-2{fill:#001136;}.cls-3{fill:#d8afde;}.cls-4{fill:#00285c;}.cls-5{fill:#cc9ed2;}</style></defs><g class="cls-1"><path class="cls-2" d="M1494.4,597.5a44.18,44.18,0,0,1,22.6,6,45.24,45.24,0,0,1,16.4,16.4,44.18,44.18,0,0,1,6,22.6v10.1a45.07,45.07,0,0,1-44.9,45.1h-33.4a2.88,2.88,0,0,1-2.1-.9,2.71,2.71,0,0,1-.8-2V600.4a3.23,3.23,0,0,1,.8-2.1,2.65,2.65,0,0,1,2.1-.8Zm34.3,55.1V642.5a34.14,34.14,0,0,0-34.3-34.3h-25.6V687h25.6a34.31,34.31,0,0,0,34.3-34.4Z" transform="translate(-158.4)"/></g><g class="cls-1"><path class="cls-2" d="M1608.2,687.8a40.26,40.26,0,0,0,.8,7.7,2.27,2.27,0,0,1-.5,1.8,2.14,2.14,0,0,1-1.7.8h-6a2.3,2.3,0,0,1-2.4-2.1,42.84,42.84,0,0,1-.9-8.7v-.9c-7.1,9-15.5,13.5-25.1,13.5-6.3,0-11.5-1.7-15.6-5.2-4.6-4-6.9-9.5-6.9-16.7,0-10.6,5.5-18,16.5-22q3.3-1.2,6.6-2.1a36.48,36.48,0,0,1,7.1-1.1c2.6-.2,4.5-.3,5.7-.4s3.3-.1,6.3,0,4.7.1,5,.1h.5v-8.7a7.34,7.34,0,0,0-3.2-6.3c-2.1-1.6-5.2-2.4-9.2-2.4a30.92,30.92,0,0,0-12,2.3,18.45,18.45,0,0,0-8.2,6.4,2.49,2.49,0,0,1-3.5,1.1c-.8-.3-2.3-1-4.6-2a2.48,2.48,0,0,1-1.6-1.7,2.9,2.9,0,0,1,.2-2.4,29.93,29.93,0,0,1,12-10.4,38.11,38.11,0,0,1,17.7-4c7.1,0,12.8,1.8,17,5.5a17.56,17.56,0,0,1,6.1,13.9v44Zm-10.7-11.6V660q-14.25-.15-22.2,1.5a19.18,19.18,0,0,0-10.4,5.7,14.81,14.81,0,0,0-4.3,10.6c0,4,1,6.8,3.1,8.6s4.9,2.6,8.7,2.6a31.35,31.35,0,0,0,13.8-3.5A28.24,28.24,0,0,0,1597.5,676.2Z" transform="translate(-158.4)"/></g><g class="cls-1"><path class="cls-2" d="M1659.5,692.7a3.31,3.31,0,0,1,0,2.4,2.7,2.7,0,0,1-1.7,1.6c-5.7,2.3-10.3,3.4-13.6,3.1-5.2-.5-9.3-2.3-12.2-5.5a16.91,16.91,0,0,1-4.3-11.9v-47H1622a3.23,3.23,0,0,1-2.1-.8,2.65,2.65,0,0,1-.8-2.1v-4.7a3.23,3.23,0,0,1,.8-2.1,2.65,2.65,0,0,1,2.1-.8h5.7V606a3.23,3.23,0,0,1,.8-2.1,2.65,2.65,0,0,1,2.1-.8h4.7a3.23,3.23,0,0,1,2.1.8,2.78,2.78,0,0,1,.8,2.1v18.8h17.3a3.23,3.23,0,0,1,2.1.8,2.78,2.78,0,0,1,.8,2.1v4.7a3.23,3.23,0,0,1-.8,2.1,2.78,2.78,0,0,1-2.1.8h-17.3v47a6.37,6.37,0,0,0,1.5,4.6q1.65,1.8,5.4,2.1c1.8.2,4.7-.5,8.6-2.1a3,3,0,0,1,2.1-.1,2.48,2.48,0,0,1,1.5,1.5C1658,689.5,1658.7,691,1659.5,692.7Z" transform="translate(-158.4)"/></g><g class="cls-1"><path class="cls-2" d="M1727.6,660.1a8.2,8.2,0,0,0,0,3.6,61.49,61.49,0,0,1-2.1,17.1,24.55,24.55,0,0,1-6.9,11.6q-7.35,6.9-20.7,7.2h-.3c-8.9-.2-15.7-2.6-20.5-7.2q-9-8.4-9-28.8V660q0-20.4,9-28.8c4.8-4.6,11.6-7,20.5-7.2h.3q13.35.3,20.7,7.2C1724.6,637,1727.6,646.6,1727.6,660.1Zm-10.7,3.7v-3.7a65.2,65.2,0,0,0-1.1-12.9,16.06,16.06,0,0,0-4.5-8.3c-2.9-2.7-7.3-4.1-13.5-4.3-6.1.2-10.6,1.6-13.5,4.3a17,17,0,0,0-4.4,8.3,57.82,57.82,0,0,0-1.1,12.9v3.7a65.2,65.2,0,0,0,1.1,12.9,16.67,16.67,0,0,0,4.4,8.3c2.9,2.7,7.3,4,13.5,4.1,6.1-.1,10.6-1.5,13.5-4.1a16.38,16.38,0,0,0,4.5-8.3A58.41,58.41,0,0,0,1716.9,663.8Z" transform="translate(-158.4)"/><path class="cls-2" d="M1784.5,666.1c4.3,3.3,6.4,7.3,6.4,12.1,0,5.8-2.5,10.9-7.5,15.1s-11.1,6.4-18.4,6.4a43.45,43.45,0,0,1-11.9-2,39.92,39.92,0,0,1-11.9-5.8,2.43,2.43,0,0,1-1.1-2,2.7,2.7,0,0,1,.7-2.1,45.09,45.09,0,0,1,3.4-3.7,2.55,2.55,0,0,1,3.8-.5,28.88,28.88,0,0,0,17,5.4,20.76,20.76,0,0,0,7.5-1.3,13.28,13.28,0,0,0,5.6-3.8,8.74,8.74,0,0,0,2.1-5.7c0-1.6-1.2-3.2-3.7-4.7-1.9-1.1-6.3-2.8-13.2-5s-12.1-4.6-15.3-6.9c-5.8-4.1-8.7-9.3-8.7-15.8,0-5.8,2.5-10.9,7.5-15.1s11.1-6.4,18.4-6.4a43.45,43.45,0,0,1,11.9,2,39.92,39.92,0,0,1,11.9,5.8,2.43,2.43,0,0,1,1.1,2,2.7,2.7,0,0,1-.7,2.1c-1.5,1.6-2.7,2.9-3.5,3.8a2.7,2.7,0,0,1-3.7.6c-6.4-3.9-12.1-5.8-17-5.8a17.8,17.8,0,0,0-10.7,3.1c-3,2.1-4.4,4.7-4.4,7.9s2,6,6,8.3a36.42,36.42,0,0,0,4.9,2.2c1.7.7,4,1.5,6.7,2.4l5.4,1.8A46.34,46.34,0,0,1,1784.5,666.1Z" transform="translate(-158.4)"/><path class="cls-2" d="M1870,624.2q12.3.3,20.4,10.2c5.5,6.6,8.2,15.2,8.2,25.8a56.62,56.62,0,0,1-1.6,14,40.9,40.9,0,0,1-4.4,11.2,34.12,34.12,0,0,1-6.4,8,25.35,25.35,0,0,1-7.9,4.9,22.88,22.88,0,0,1-8.5,1.6q-13.8,0-23.7-8.1v28.5a3.09,3.09,0,0,1-2.9,2.9h-4.9a2.88,2.88,0,0,1-2.1-.9,2.71,2.71,0,0,1-.8-2V629a3.23,3.23,0,0,1,.8-2.1,2.65,2.65,0,0,1,2.1-.8h4.9a3.18,3.18,0,0,1,2,.8,2.88,2.88,0,0,1,.9,2.1v4.6A31.57,31.57,0,0,1,1870,624.2Zm-.1,65c5.2,0,9.5-2.7,12.9-8s5.1-12.3,5.1-21.1c0-7.3-1.7-13.4-5-18.1s-7.8-7.1-13.2-7.2a23,23,0,0,0-9.9,1.8,18.43,18.43,0,0,0-7.3,5.3,64.68,64.68,0,0,0-4.1,5.4,21.29,21.29,0,0,0-2.1,4.3v23.6a22,22,0,0,0,2.4,3.5,42.32,42.32,0,0,0,4.3,4.4,22.38,22.38,0,0,0,7.3,4.3A23.83,23.83,0,0,0,1869.9,689.2Z" transform="translate(-158.4)"/><path class="cls-2" d="M1967.5,687.8a40.26,40.26,0,0,0,.8,7.7,2.27,2.27,0,0,1-.5,1.8,2.14,2.14,0,0,1-1.7.8h-6a2.3,2.3,0,0,1-2.4-2.1,42.84,42.84,0,0,1-.9-8.7v-.9c-7.1,9-15.5,13.5-25.1,13.5-6.3,0-11.5-1.7-15.6-5.2-4.6-4-6.9-9.5-6.9-16.7,0-10.6,5.5-18,16.5-22q3.3-1.2,6.6-2.1a36.48,36.48,0,0,1,7.1-1.1c2.6-.2,4.5-.3,5.7-.4s3.3-.1,6.3,0,4.7.1,5,.1h.5v-8.7a7.34,7.34,0,0,0-3.2-6.3c-2.1-1.6-5.2-2.4-9.2-2.4a30.92,30.92,0,0,0-12,2.3,18.45,18.45,0,0,0-8.2,6.4,2.49,2.49,0,0,1-3.5,1.1c-.8-.3-2.3-1-4.6-2a2.48,2.48,0,0,1-1.6-1.7,2.9,2.9,0,0,1,.2-2.4,29.93,29.93,0,0,1,12-10.4,38.11,38.11,0,0,1,17.7-4c7.1,0,12.8,1.8,17,5.5a17.56,17.56,0,0,1,6.1,13.9v44Zm-10.7-11.6V660q-14.25-.15-22.2,1.5a19.18,19.18,0,0,0-10.4,5.7,14.81,14.81,0,0,0-4.3,10.6c0,4,1,6.8,3.1,8.6s4.9,2.6,8.7,2.6a31.35,31.35,0,0,0,13.8-3.5A28.93,28.93,0,0,0,1956.8,676.2Z" transform="translate(-158.4)"/></g><g class="cls-1"><path class="cls-2" d="M2021.2,624.3a3.1,3.1,0,0,1,1.8.9,2.79,2.79,0,0,1,.8,2v5.2a3,3,0,0,1-1.1,2.4,2.84,2.84,0,0,1-2.5.5,9.29,9.29,0,0,0-2.9-.5,14.69,14.69,0,0,0-9.6,3.4,39,39,0,0,0-7.9,7.8,30.68,30.68,0,0,0-4.4,8.4v40.7a2.88,2.88,0,0,1-.9,2.1,2.71,2.71,0,0,1-2,.8h-4.9a3.23,3.23,0,0,1-2.1-.8,2.65,2.65,0,0,1-.8-2.1V628.7a3.23,3.23,0,0,1,.8-2.1,2.65,2.65,0,0,1,2.1-.8h4.9a3.23,3.23,0,0,1,2.1.8,2.78,2.78,0,0,1,.8,2.1v9.2a4.82,4.82,0,0,1,.8-1.2c6.4-8.6,14.2-12.8,23.3-12.5A9.15,9.15,0,0,1,2021.2,624.3Z" transform="translate(-158.4)"/></g><g class="cls-1"><path class="cls-2" d="M2085.1,687.8a40.26,40.26,0,0,0,.8,7.7,2.27,2.27,0,0,1-.5,1.8,2.14,2.14,0,0,1-1.7.8h-6a2.3,2.3,0,0,1-2.4-2.1,42.84,42.84,0,0,1-.9-8.7v-.9c-7.1,9-15.5,13.5-25.1,13.5-6.3,0-11.5-1.7-15.6-5.2-4.6-4-6.9-9.5-6.9-16.7,0-10.6,5.5-18,16.5-22q3.3-1.2,6.6-2.1a36.48,36.48,0,0,1,7.1-1.1c2.6-.2,4.5-.3,5.7-.4s3.3-.1,6.3,0,4.7.1,5,.1h.5v-8.7a7.34,7.34,0,0,0-3.2-6.3c-2.1-1.6-5.2-2.4-9.2-2.4a30.92,30.92,0,0,0-12,2.3,18.45,18.45,0,0,0-8.2,6.4,2.49,2.49,0,0,1-3.5,1.1c-.8-.3-2.3-1-4.6-2a2.48,2.48,0,0,1-1.6-1.7,2.9,2.9,0,0,1,.2-2.4,29.93,29.93,0,0,1,12-10.4,38.11,38.11,0,0,1,17.7-4c7.1,0,12.8,1.8,17,5.5a17.56,17.56,0,0,1,6.1,13.9v44Zm-10.7-11.6V660q-14.25-.15-22.2,1.5a19.18,19.18,0,0,0-10.4,5.7,14.81,14.81,0,0,0-4.3,10.6c0,4,1,6.8,3.1,8.6s4.9,2.6,8.7,2.6a31.35,31.35,0,0,0,13.8-3.5A28.24,28.24,0,0,0,2074.4,676.2Z" transform="translate(-158.4)"/><path class="cls-2" d="M2167.6,624.2c7,.2,12.4,3.5,16.2,9.8s5.7,15,5.7,26.2v35a3.23,3.23,0,0,1-.8,2.1,2.78,2.78,0,0,1-2.1.8h-4.9a3.23,3.23,0,0,1-2.1-.8,2.65,2.65,0,0,1-.8-2.1V654.5a43.81,43.81,0,0,0-.3-4.7,25.76,25.76,0,0,0-.9-4.8,17.64,17.64,0,0,0-1.7-3.7c-2.6-4.1-6-6.2-10.4-6.3a19,19,0,0,0-7,1.1,21.86,21.86,0,0,0-6.1,3.1,18.75,18.75,0,0,0-4.3,4.1,37.35,37.35,0,0,0-4.4,8.4v43.6a2.88,2.88,0,0,1-.9,2.1,2.71,2.71,0,0,1-2,.8h-4.9a3.23,3.23,0,0,1-2.1-.8,2.65,2.65,0,0,1-.8-2.1V628.9a3.23,3.23,0,0,1,.8-2.1,2.65,2.65,0,0,1,2.1-.8h4.9a3.23,3.23,0,0,1,2.1.8,2.78,2.78,0,0,1,.8,2.1v9.2a4.88,4.88,0,0,1,.8-1.2C2150.8,628.1,2158.5,624,2167.6,624.2Z" transform="translate(-158.4)"/></g><g class="cls-1"><path class="cls-2" d="M2260.2,687.8a40.26,40.26,0,0,0,.8,7.7,2.27,2.27,0,0,1-.5,1.8,2.14,2.14,0,0,1-1.7.8h-6a2.3,2.3,0,0,1-2.4-2.1,42.84,42.84,0,0,1-.9-8.7v-.9c-7.1,9-15.5,13.5-25.1,13.5-6.3,0-11.5-1.7-15.6-5.2-4.6-4-6.9-9.5-6.9-16.7,0-10.6,5.5-18,16.5-22q3.3-1.2,6.6-2.1a36.48,36.48,0,0,1,7.1-1.1c2.6-.2,4.5-.3,5.7-.4s3.3-.1,6.3,0,4.7.1,5,.1h.5v-8.7a7.34,7.34,0,0,0-3.2-6.3c-2.1-1.6-5.2-2.4-9.2-2.4a30.92,30.92,0,0,0-12,2.3,18.45,18.45,0,0,0-8.2,6.4,2.49,2.49,0,0,1-3.5,1.1c-.8-.3-2.3-1-4.6-2a2.48,2.48,0,0,1-1.6-1.7,2.9,2.9,0,0,1,.2-2.4,29.93,29.93,0,0,1,12-10.4,38.11,38.11,0,0,1,17.7-4c7.1,0,12.8,1.8,17,5.5a17.56,17.56,0,0,1,6.1,13.9v44Zm-10.7-11.6V660q-14.25-.15-22.2,1.5a19.18,19.18,0,0,0-10.4,5.7,14.81,14.81,0,0,0-4.3,10.6c0,4,1,6.8,3.1,8.6s4.9,2.6,8.7,2.6a31.35,31.35,0,0,0,13.8-3.5A29.67,29.67,0,0,0,2249.5,676.2Z" transform="translate(-158.4)"/></g><g class="cls-1"><path class="cls-2" d="M2327.2,627.1a2.76,2.76,0,0,1,.5,2.6q-7,20.85-22.3,66.4a2.64,2.64,0,0,1-2.8,2h-7a3,3,0,0,1-2.8-2q-2.55-7.8-22.2-66.4a2.72,2.72,0,0,1,.4-2.6,2.85,2.85,0,0,1,2.4-1.2h5a2.79,2.79,0,0,1,2.8,2l17.9,53.4q14.7-43.65,17.9-53.4a2.79,2.79,0,0,1,2.8-2h5A3,3,0,0,1,2327.2,627.1Z" transform="translate(-158.4)"/><path class="cls-2" d="M2396.5,658.4h.2v6a2.88,2.88,0,0,1-.9,2.1,2.71,2.71,0,0,1-2,.8h-46.5q.75,11.85,6.6,16.8c3.9,3.3,9.9,4.9,18.2,4.9a23.34,23.34,0,0,0,13.6-4.3,2.46,2.46,0,0,1,3.8.3c.6.6,1.7,1.8,3.4,3.7a3.41,3.41,0,0,1,.7,2.2,2.75,2.75,0,0,1-1.1,2.1,33.42,33.42,0,0,1-20.3,6.7c-10.9,0-19.3-2.5-25.1-7.5-7-6-10.6-16.1-10.6-30.3v-.2c0-13.9,2.9-23.8,8.6-29.7,5-5.3,12.2-8,21.5-8s16.5,2.7,21.6,8C2393.3,637.5,2396.1,646.3,2396.5,658.4Zm-49.4,0H2386c-.3-9.1-2.2-15.4-5.7-19-2.9-3.2-7.4-4.7-13.8-4.7s-11,1.6-13.9,4.7C2349.1,643,2347.3,649.4,2347.1,658.4Z" transform="translate(-158.4)"/><path class="cls-2" d="M2469,626.2a2.75,2.75,0,0,1,2.9,2.9V703q0,7.5-6.3,13.8c-5.9,5.3-14.3,8-25.1,8a41.36,41.36,0,0,1-11.4-1.5,29.89,29.89,0,0,1-8.8-3.8,51.65,51.65,0,0,1-5.7-4.5,29.79,29.79,0,0,1-3.7-4.4,3.34,3.34,0,0,1-.6-2.3l1.7-1.7,4.6-2.3c1.1-.6,2.7-.3,4.6,1.1,4.1,6.1,10.7,9.2,19.9,9.2a30.8,30.8,0,0,0,15.9-4c3.1-1.8,4.6-4.1,4.6-6.9V692.4c-7.6,5.3-15.5,8-23.9,8a23.44,23.44,0,0,1-10.9-2.7,29.13,29.13,0,0,1-9.3-7.6,37.38,37.38,0,0,1-6.5-12.6,57,57,0,0,1-2.4-17.1c0-10.5,2.7-19,8.1-25.6a27.17,27.17,0,0,1,20.3-10.3c9.9,0,17.8,3,23.9,9v-4.4a2.86,2.86,0,0,1,.8-2.1,3,3,0,0,1,2.1-.8Zm-8,49.5h-.5V652.3a28.06,28.06,0,0,0-2.1-4.3,47.88,47.88,0,0,0-4-5.6,19.63,19.63,0,0,0-7.3-5.4,22.5,22.5,0,0,0-10.1-1.9c-5.4,0-9.8,2.3-13.2,7s-5,10.7-5,18.1c0,8.9,1.7,15.9,5.1,21.2s7.8,7.9,13.1,7.9C2447.7,689.3,2455.6,684.8,2461,675.7Z" transform="translate(-158.4)"/><path class="cls-2" d="M2544.1,687.8a40.26,40.26,0,0,0,.8,7.7,2.27,2.27,0,0,1-.5,1.8,2.14,2.14,0,0,1-1.7.8h-6a2.3,2.3,0,0,1-2.4-2.1,42.84,42.84,0,0,1-.9-8.7v-.9c-7.1,9-15.5,13.5-25.1,13.5-6.3,0-11.5-1.7-15.6-5.2-4.6-4-6.9-9.5-6.9-16.7,0-10.6,5.5-18,16.5-22q3.3-1.2,6.6-2.1a36.48,36.48,0,0,1,7.1-1.1c2.6-.2,4.5-.3,5.7-.4s3.3-.1,6.3,0,4.7.1,5,.1h.5v-8.7a7.34,7.34,0,0,0-3.2-6.3c-2.1-1.6-5.2-2.4-9.2-2.4a30.92,30.92,0,0,0-12,2.3,18.45,18.45,0,0,0-8.2,6.4,2.49,2.49,0,0,1-3.5,1.1c-.8-.3-2.3-1-4.6-2a2.48,2.48,0,0,1-1.6-1.7,2.9,2.9,0,0,1,.2-2.4,29.93,29.93,0,0,1,12-10.4,38.11,38.11,0,0,1,17.7-4c7.1,0,12.8,1.8,17,5.5a17.56,17.56,0,0,1,6.1,13.9v44Zm-10.7-11.6V660q-14.25-.15-22.2,1.5a19.18,19.18,0,0,0-10.4,5.7,14.81,14.81,0,0,0-4.3,10.6c0,4,1,6.8,3.1,8.6s4.9,2.6,8.7,2.6a31.35,31.35,0,0,0,13.8-3.5A28.24,28.24,0,0,0,2533.4,676.2Z" transform="translate(-158.4)"/><path class="cls-2" d="M2598,624.3a3.1,3.1,0,0,1,1.8.9,2.79,2.79,0,0,1,.8,2v5.2a3,3,0,0,1-1.1,2.4,2.84,2.84,0,0,1-2.5.5,9.29,9.29,0,0,0-2.9-.5,14.69,14.69,0,0,0-9.6,3.4,39,39,0,0,0-7.9,7.8,30.68,30.68,0,0,0-4.4,8.4v40.7a2.88,2.88,0,0,1-.9,2.1,2.71,2.71,0,0,1-2,.8h-4.9a3.23,3.23,0,0,1-2.1-.8,2.65,2.65,0,0,1-.8-2.1V628.7a3.23,3.23,0,0,1,.8-2.1,2.65,2.65,0,0,1,2.1-.8h4.9a3.23,3.23,0,0,1,2.1.8,2.78,2.78,0,0,1,.8,2.1v9.2a4.82,4.82,0,0,1,.8-1.2c6.4-8.6,14.2-12.8,23.3-12.5A9.15,9.15,0,0,1,2598,624.3Z" transform="translate(-158.4)"/></g><g class="cls-1"><path class="cls-2" d="M1514.5,798.4h.2v6a2.88,2.88,0,0,1-.9,2.1,2.71,2.71,0,0,1-2,.8h-46.5q.75,11.85,6.6,16.8c3.9,3.3,9.9,4.9,18.2,4.9a23.34,23.34,0,0,0,13.6-4.3,2.46,2.46,0,0,1,3.8.3c.6.6,1.7,1.8,3.4,3.7a3.41,3.41,0,0,1,.7,2.2,2.75,2.75,0,0,1-1.1,2.1,33.42,33.42,0,0,1-20.3,6.7c-10.9,0-19.3-2.5-25.1-7.5-7-6-10.6-16.1-10.6-30.3v-.2c0-13.9,2.9-23.8,8.6-29.7,5-5.3,12.2-8,21.5-8s16.5,2.7,21.6,8C1511.2,777.5,1514,786.3,1514.5,798.4Zm-49.5,0h38.9c-.3-9.1-2.2-15.4-5.7-19-2.9-3.2-7.4-4.7-13.8-4.7s-11,1.6-13.9,4.7C1467.1,783,1465.2,789.4,1465,798.4Z" transform="translate(-158.4)"/><path class="cls-2" d="M1539.5,736.2a2.78,2.78,0,0,1,.8,2.1v96.8a2.88,2.88,0,0,1-.9,2.1,2.71,2.71,0,0,1-2,.8h-4.9a3.23,3.23,0,0,1-2.1-.8,2.65,2.65,0,0,1-.8-2.1V738.3a3.23,3.23,0,0,1,.8-2.1,2.65,2.65,0,0,1,2.1-.8h4.9A3.23,3.23,0,0,1,1539.5,736.2Z" transform="translate(-158.4)"/><path class="cls-2" d="M1599.8,776.7a37.8,37.8,0,0,1,9.5-9.3c3.4-2.2,7.6-3.3,12.9-3.3a20.16,20.16,0,0,1,7.3,1.4,19.57,19.57,0,0,1,5.7,3.4,47.35,47.35,0,0,1,3.8,4.1,13.53,13.53,0,0,1,2.3,3.4l.8,1.5a9.22,9.22,0,0,1,.5-.8,19,19,0,0,1,1.8-2c.9-1,1.9-1.9,2.8-2.8a36.86,36.86,0,0,1,3.8-2.9,39.75,39.75,0,0,1,4.8-2.8,25.37,25.37,0,0,1,5.7-1.9,24.25,24.25,0,0,1,6.5-.6q10.65.3,16.8,9.9c4,6.4,6,15.1,6,26v35a3.23,3.23,0,0,1-.8,2.1,2.78,2.78,0,0,1-2.1.8h-4.7a3.23,3.23,0,0,1-2.1-.8,2.65,2.65,0,0,1-.8-2.1V800c0-3.4-.1-5.9-.2-7.6a54.23,54.23,0,0,0-.8-5.9,15.42,15.42,0,0,0-2.1-5.5,11.77,11.77,0,0,0-10.4-6.3,20,20,0,0,0-9.9,2.3,19.2,19.2,0,0,0-7.3,6,34.37,34.37,0,0,0-4.6,8.4v43.8a2.72,2.72,0,0,1-.6,1.7h-.2v.2h-.2v.2h-.2v.2a2.72,2.72,0,0,1-1.7.6h-5.3a2.72,2.72,0,0,1-1.7-.6v-.2h-.2v-.2h-.2V837a3.81,3.81,0,0,1-.8-1.7V800.1c0-3.4,0-5.9-.1-7.6a37.23,37.23,0,0,0-.8-5.9,15.42,15.42,0,0,0-2.1-5.5c-2.6-4.1-6-6.2-10.4-6.3a20.68,20.68,0,0,0-10,2.3,19.56,19.56,0,0,0-7.4,6,30.68,30.68,0,0,0-4.4,8.4v43.6a3.23,3.23,0,0,1-.8,2.1,2.78,2.78,0,0,1-2.1.8h-4.9a3.23,3.23,0,0,1-2.1-.8,2.65,2.65,0,0,1-.8-2.1V768.7a3.23,3.23,0,0,1,.8-2.1,2.65,2.65,0,0,1,2.1-.8h4.9a3.18,3.18,0,0,1,2,.8,2.88,2.88,0,0,1,.9,2.1v9.2A4.26,4.26,0,0,0,1599.8,776.7Z" transform="translate(-158.4)"/><path class="cls-2" d="M1762.1,766.7a2.78,2.78,0,0,1,.8,2.1v66.4a3.23,3.23,0,0,1-.8,2.1,2.78,2.78,0,0,1-2.1.8h-4.9a3.23,3.23,0,0,1-2.1-.8,2.65,2.65,0,0,1-.8-2.1V826a4.82,4.82,0,0,0-.8,1.2c-6.4,8.6-14.2,12.7-23.3,12.5q-10.5-.3-16.2-9.9t-5.7-26.1v-35a3.23,3.23,0,0,1,.8-2.1,2.65,2.65,0,0,1,2.1-.8h4.9a3.18,3.18,0,0,1,2,.8,2.88,2.88,0,0,1,.9,2.1v35c0,3.4,0,5.9.1,7.6a26.7,26.7,0,0,0,.8,5.8,16.77,16.77,0,0,0,2.1,5.6c2.5,4.1,6,6.2,10.4,6.3a20.68,20.68,0,0,0,10-2.3,19.2,19.2,0,0,0,7.3-6,32.64,32.64,0,0,0,4.6-8.4V768.7a3.23,3.23,0,0,1,.8-2.1,2.65,2.65,0,0,1,2.1-.8h4.9A3.33,3.33,0,0,1,1762.1,766.7Z" transform="translate(-158.4)"/><path class="cls-2" d="M1815.1,764.2c7,.2,12.4,3.5,16.2,9.8s5.7,15,5.7,26.2v35a3.23,3.23,0,0,1-.8,2.1,2.78,2.78,0,0,1-2.1.8h-4.9a3.23,3.23,0,0,1-2.1-.8,2.65,2.65,0,0,1-.8-2.1V794.5a43.81,43.81,0,0,0-.3-4.7,25.76,25.76,0,0,0-.9-4.8,17.64,17.64,0,0,0-1.7-3.7c-2.6-4.1-6-6.2-10.4-6.3a19,19,0,0,0-7,1.1,21.86,21.86,0,0,0-6.1,3.1,18.75,18.75,0,0,0-4.3,4.1,37.35,37.35,0,0,0-4.4,8.4v43.6a2.88,2.88,0,0,1-.9,2.1,2.71,2.71,0,0,1-2,.8h-4.9a3.23,3.23,0,0,1-2.1-.8,2.65,2.65,0,0,1-.8-2.1V768.9a3.23,3.23,0,0,1,.8-2.1,2.65,2.65,0,0,1,2.1-.8h4.9a3.23,3.23,0,0,1,2.1.8,2.78,2.78,0,0,1,.8,2.1v9.2a4.88,4.88,0,0,1,.8-1.2C1798.3,768.1,1806,764,1815.1,764.2Z" transform="translate(-158.4)"/><path class="cls-2" d="M1913.2,736.2a2.78,2.78,0,0,1,.8,2.1v96.8a3.23,3.23,0,0,1-.8,2.1,2.78,2.78,0,0,1-2.1.8h-4.9a3.23,3.23,0,0,1-2.1-.8,2.65,2.65,0,0,1-.8-2.1v-8.4c-7.3,8.7-16.9,13-28.6,13-7.3,0-13.2-3.4-17.4-10.3s-6.4-16.7-6.4-29.3c0-11.1,2-19.8,6-26.2s10-9.6,17.8-9.8c11.7-.3,21.3,4.6,28.6,14.7V738.3a3.23,3.23,0,0,1,.8-2.1,2.65,2.65,0,0,1,2.1-.8h4.9A2.86,2.86,0,0,1,1913.2,736.2Zm-9.8,78.9V791.7a15.94,15.94,0,0,0-2.4-4.3,44.26,44.26,0,0,0-4.9-5.5,26.21,26.21,0,0,0-8-5.1,24.19,24.19,0,0,0-10.3-1.9,13.62,13.62,0,0,0-12.1,7c-2.8,4.5-4.1,10.6-4.1,18.3a55.24,55.24,0,0,0,1.9,15.5c1.3,4.4,3.1,7.7,5.6,10a12,12,0,0,0,8.6,3.4,31.18,31.18,0,0,0,10.2-1.7,28.52,28.52,0,0,0,8-4.1,38.84,38.84,0,0,0,5-4.5A30.15,30.15,0,0,0,1903.4,815.1Z" transform="translate(-158.4)"/><path class="cls-2" d="M1988.9,800.1a8.2,8.2,0,0,0,0,3.6,61.49,61.49,0,0,1-2.1,17.1,24.55,24.55,0,0,1-6.9,11.6q-7.35,6.9-20.7,7.2h-.3c-8.9-.2-15.7-2.6-20.5-7.2q-9-8.4-9-28.8V800q0-20.4,9-28.8c4.8-4.6,11.6-7,20.5-7.2h.3q13.35.3,20.7,7.2C1985.9,777,1988.9,786.6,1988.9,800.1Zm-10.7,3.7v-3.7a65.2,65.2,0,0,0-1.1-12.9,16.81,16.81,0,0,0-4.5-8.3c-2.9-2.7-7.3-4.1-13.5-4.3-6.1.2-10.6,1.6-13.5,4.3a17,17,0,0,0-4.4,8.3,57.82,57.82,0,0,0-1.1,12.9v3.7a65.2,65.2,0,0,0,1.1,12.9,16.67,16.67,0,0,0,4.4,8.3c2.9,2.7,7.3,4,13.5,4.1,6.1-.1,10.6-1.5,13.5-4.1a16.38,16.38,0,0,0,4.5-8.3A65.2,65.2,0,0,0,1978.2,803.8Z" transform="translate(-158.4)"/></g><g class="cls-1"><path class="cls-2" d="M2068.6,832.7a3.31,3.31,0,0,1,0,2.4,2.7,2.7,0,0,1-1.7,1.6c-5.7,2.3-10.3,3.4-13.6,3.1-5.2-.5-9.3-2.3-12.2-5.5a16.91,16.91,0,0,1-4.3-11.9v-47h-5.7a3.23,3.23,0,0,1-2.1-.8,2.65,2.65,0,0,1-.8-2.1v-4.7a3.23,3.23,0,0,1,.8-2.1,2.65,2.65,0,0,1,2.1-.8h5.7V746a3.23,3.23,0,0,1,.8-2.1,2.65,2.65,0,0,1,2.1-.8h4.7a3.23,3.23,0,0,1,2.1.8,2.78,2.78,0,0,1,.8,2.1v18.8h17.3a3.23,3.23,0,0,1,2.1.8,2.78,2.78,0,0,1,.8,2.1v4.7a3.23,3.23,0,0,1-.8,2.1,2.78,2.78,0,0,1-2.1.8h-17.3v47a6.37,6.37,0,0,0,1.5,4.6q1.65,1.8,5.4,2.1c1.8.2,4.7-.5,8.6-2.1a3,3,0,0,1,2.1-.1,2.48,2.48,0,0,1,1.5,1.5C2067.1,829.5,2067.8,831,2068.6,832.7Z" transform="translate(-158.4)"/></g><g class="cls-1"><path class="cls-2" d="M2136.8,798.4h.2v6a2.88,2.88,0,0,1-.9,2.1,2.71,2.71,0,0,1-2,.8h-46.5q.75,11.85,6.6,16.8c3.9,3.3,9.9,4.9,18.2,4.9a23.34,23.34,0,0,0,13.6-4.3,2.46,2.46,0,0,1,3.8.3c.6.6,1.7,1.8,3.4,3.7a3.41,3.41,0,0,1,.7,2.2,2.75,2.75,0,0,1-1.1,2.1,33.42,33.42,0,0,1-20.3,6.7c-10.9,0-19.3-2.5-25.1-7.5-7-6-10.6-16.1-10.6-30.3v-.2c0-13.9,2.9-23.8,8.6-29.7,5-5.3,12.2-8,21.5-8s16.5,2.7,21.6,8C2133.6,777.5,2136.4,786.3,2136.8,798.4Zm-49.4,0h38.9c-.3-9.1-2.2-15.4-5.7-19-2.9-3.2-7.4-4.7-13.8-4.7s-11,1.6-13.9,4.7C2089.5,783,2087.6,789.4,2087.4,798.4Z" transform="translate(-158.4)"/><path class="cls-2" d="M2205.8,828.7a3.89,3.89,0,0,1,.7,2.3,2.72,2.72,0,0,1-1.1,2,33.42,33.42,0,0,1-20.3,6.7c-10.9,0-19.3-2.5-25.1-7.5-7-6-10.6-16.1-10.6-30.3v-.3c0-14,3.5-24,10.6-30,5.8-5,14.2-7.5,25.1-7.5a33.42,33.42,0,0,1,20.3,6.7,3.09,3.09,0,0,1,1.1,2,2.63,2.63,0,0,1-.6,2.1c-.6.7-1.7,2-3.2,3.8a2.68,2.68,0,0,1-4,.3,22.9,22.9,0,0,0-13.6-4.3c-8.3,0-14.3,1.6-18.2,4.9a16.59,16.59,0,0,0-5.4,8.9,51.68,51.68,0,0,0-1.4,13.3v.5a53.85,53.85,0,0,0,1.4,13,15.83,15.83,0,0,0,5.4,8.7c3.9,3.3,9.9,4.9,18.2,4.9a22.9,22.9,0,0,0,13.6-4.3,2.46,2.46,0,0,1,3.8.3A43.83,43.83,0,0,0,2205.8,828.7Z" transform="translate(-158.4)"/><path class="cls-2" d="M2253.7,764.2c7,.2,12.4,3.5,16.2,9.8s5.7,15,5.7,26.2v35a3.23,3.23,0,0,1-.8,2.1,2.78,2.78,0,0,1-2.1.8h-4.9a3.23,3.23,0,0,1-2.1-.8,2.65,2.65,0,0,1-.8-2.1V794.5a43.81,43.81,0,0,0-.3-4.7,25.76,25.76,0,0,0-.9-4.8,17.64,17.64,0,0,0-1.7-3.7c-2.6-4.1-6-6.2-10.4-6.3a19,19,0,0,0-7,1.1,21.86,21.86,0,0,0-6.1,3.1,18.75,18.75,0,0,0-4.3,4.1,37.35,37.35,0,0,0-4.4,8.4v43.6a2.88,2.88,0,0,1-.9,2.1,2.71,2.71,0,0,1-2,.8H2222a3.23,3.23,0,0,1-2.1-.8,2.65,2.65,0,0,1-.8-2.1V768.9a3.23,3.23,0,0,1,.8-2.1,2.65,2.65,0,0,1,2.1-.8h4.9a3.23,3.23,0,0,1,2.1.8,2.78,2.78,0,0,1,.8,2.1v9.2a4.88,4.88,0,0,1,.8-1.2C2236.9,768.1,2244.7,764,2253.7,764.2Z" transform="translate(-158.4)"/><path class="cls-2" d="M2349.2,800.1a8.2,8.2,0,0,0,0,3.6,61.49,61.49,0,0,1-2.1,17.1,24.55,24.55,0,0,1-6.9,11.6q-7.35,6.9-20.7,7.2h-.3c-8.9-.2-15.7-2.6-20.5-7.2q-9-8.4-9-28.8V800q0-20.4,9-28.8c4.8-4.6,11.6-7,20.5-7.2h.3q13.35.3,20.7,7.2C2346.2,777,2349.2,786.6,2349.2,800.1Zm-10.7,3.7v-3.7a65.2,65.2,0,0,0-1.1-12.9,16.81,16.81,0,0,0-4.5-8.3c-2.9-2.7-7.3-4.1-13.5-4.3-6.1.2-10.6,1.6-13.5,4.3a17,17,0,0,0-4.4,8.3,57.82,57.82,0,0,0-1.1,12.9v3.7a65.2,65.2,0,0,0,1.1,12.9,16.67,16.67,0,0,0,4.4,8.3c2.9,2.7,7.3,4,13.5,4.1,6.1-.1,10.6-1.5,13.5-4.1a16.38,16.38,0,0,0,4.5-8.3A65.2,65.2,0,0,0,2338.5,803.8Z" transform="translate(-158.4)"/><path class="cls-2" d="M2374.2,736.2a2.78,2.78,0,0,1,.8,2.1v96.8a2.88,2.88,0,0,1-.9,2.1,2.71,2.71,0,0,1-2,.8h-4.9a3.23,3.23,0,0,1-2.1-.8,2.65,2.65,0,0,1-.8-2.1V738.3a3.23,3.23,0,0,1,.8-2.1,2.65,2.65,0,0,1,2.1-.8h4.9A2.86,2.86,0,0,1,2374.2,736.2Z" transform="translate(-158.4)"/><path class="cls-2" d="M2399.2,771.4c4.8-4.6,11.6-7,20.5-7.2h.3q13.35.3,20.7,7.2c5.9,5.6,8.9,15.2,8.9,28.8v3.6a61.49,61.49,0,0,1-2.1,17.1,24.41,24.41,0,0,1-6.8,11.6q-7.35,6.9-20.7,7.2h-.3c-8.9-.2-15.7-2.6-20.5-7.2q-9-8.4-9-28.8v-3.5Q2390.2,779.8,2399.2,771.4Zm34.2,7.6c-2.9-2.7-7.3-4-13.5-4.1-6.1.1-10.6,1.5-13.5,4.1a17,17,0,0,0-4.4,8.3,57.82,57.82,0,0,0-1.1,12.9v3.7a65.2,65.2,0,0,0,1.1,12.9,15.93,15.93,0,0,0,4.4,8.3c2.9,2.7,7.3,4,13.5,4.1,6.1-.1,10.6-1.5,13.5-4.1a16.38,16.38,0,0,0,4.5-8.3,58.41,58.41,0,0,0,1.1-12.9v-3.7a65.2,65.2,0,0,0-1.1-12.9A16.81,16.81,0,0,0,2433.4,779Zm7.8-39.5c-1.9,1.8-4.7,4.6-8.4,8.2s-5.7,5.6-6.1,6a2.79,2.79,0,0,1-2,.8h-4.6a2.67,2.67,0,0,1-2.6-1.8,2.57,2.57,0,0,1,.5-3.1c5.1-5.6,9.4-10.4,13-14.2a2.58,2.58,0,0,1,2.1-.9h6a2.89,2.89,0,0,1,2.1,5Z" transform="translate(-158.4)"/><path class="cls-2" d="M2522.2,766.2a2.75,2.75,0,0,1,2.9,2.9V843q0,7.5-6.3,13.8c-5.9,5.3-14.3,8-25.1,8a41.36,41.36,0,0,1-11.4-1.5,29.89,29.89,0,0,1-8.8-3.8,51.65,51.65,0,0,1-5.7-4.5,29.79,29.79,0,0,1-3.7-4.4,3.34,3.34,0,0,1-.6-2.3l1.7-1.7,4.6-2.3c1.1-.6,2.7-.3,4.6,1.1,4.1,6.1,10.7,9.2,19.9,9.2a30.8,30.8,0,0,0,15.9-4c3.1-1.8,4.6-4.1,4.6-6.9V832.4c-7.5,5.3-15.5,8-23.9,8a23.44,23.44,0,0,1-10.9-2.7,29.13,29.13,0,0,1-9.3-7.6,37.38,37.38,0,0,1-6.5-12.6,57,57,0,0,1-2.4-17.1c0-10.5,2.7-19,8.1-25.6a27.17,27.17,0,0,1,20.3-10.3c9.9,0,17.8,3,23.9,9v-4.4a2.86,2.86,0,0,1,.8-2.1,3,3,0,0,1,2.1-.8Zm-7.9,49.5h-.5V792.3a28.06,28.06,0,0,0-2.1-4.3,47.88,47.88,0,0,0-4-5.6,19.63,19.63,0,0,0-7.3-5.4,22.5,22.5,0,0,0-10.1-1.9c-5.4,0-9.8,2.3-13.2,7s-5,10.7-5,18.1c0,8.9,1.7,15.9,5.1,21.2s7.8,7.9,13.1,7.9C2500.9,829.3,2508.9,824.8,2514.3,815.7Z" transform="translate(-158.4)"/><path class="cls-2" d="M2550.5,738.6a3.18,3.18,0,0,1,2,.8,2.88,2.88,0,0,1,.9,2.1v7.8a2.46,2.46,0,0,1-.9,1.9,2.71,2.71,0,0,1-2,.8h-4.9a3.23,3.23,0,0,1-2.1-.8,2.5,2.5,0,0,1-.8-1.9v-7.8a3.23,3.23,0,0,1,.8-2.1,2.65,2.65,0,0,1,2.1-.8Zm0,27.1a3.18,3.18,0,0,1,2,.8,2.88,2.88,0,0,1,.9,2.1V835a2.88,2.88,0,0,1-.9,2.1,2.71,2.71,0,0,1-2,.8h-4.9a3.23,3.23,0,0,1-2.1-.8,2.65,2.65,0,0,1-.8-2.1V768.6a3.23,3.23,0,0,1,.8-2.1,2.65,2.65,0,0,1,2.1-.8Z" transform="translate(-158.4)"/></g><g class="cls-1"><path class="cls-2" d="M2623.4,828.7a3.89,3.89,0,0,1,.7,2.3,2.72,2.72,0,0,1-1.1,2,33.42,33.42,0,0,1-20.3,6.7c-10.9,0-19.3-2.5-25.1-7.5-7-6-10.6-16.1-10.6-30.3v-.3c0-14,3.5-24,10.6-30,5.8-5,14.2-7.5,25.1-7.5a33.42,33.42,0,0,1,20.3,6.7,3.09,3.09,0,0,1,1.1,2,2.63,2.63,0,0,1-.6,2.1c-.6.7-1.7,2-3.2,3.8a2.68,2.68,0,0,1-4,.3,22.9,22.9,0,0,0-13.6-4.3c-8.3,0-14.3,1.6-18.2,4.9a16.59,16.59,0,0,0-5.4,8.9,51.68,51.68,0,0,0-1.4,13.3v.5a53.85,53.85,0,0,0,1.4,13,15.83,15.83,0,0,0,5.4,8.7c3.9,3.3,9.9,4.9,18.2,4.9a22.9,22.9,0,0,0,13.6-4.3,2.46,2.46,0,0,1,3.8.3A24.4,24.4,0,0,0,2623.4,828.7Z" transform="translate(-158.4)"/></g><g class="cls-1"><path class="cls-2" d="M2692.4,800.1a8.2,8.2,0,0,0,0,3.6,61.49,61.49,0,0,1-2.1,17.1,24.55,24.55,0,0,1-6.9,11.6q-7.35,6.9-20.7,7.2h-.3c-8.9-.2-15.7-2.6-20.5-7.2q-9-8.4-9-28.8V800q0-20.4,9-28.8c4.8-4.6,11.6-7,20.5-7.2h.3q13.35.3,20.7,7.2C2689.4,777,2692.4,786.6,2692.4,800.1Zm-10.7,3.7v-3.7a65.2,65.2,0,0,0-1.1-12.9,16.81,16.81,0,0,0-4.5-8.3c-2.9-2.7-7.3-4.1-13.5-4.3-6.1.2-10.6,1.6-13.5,4.3a17,17,0,0,0-4.4,8.3,57.82,57.82,0,0,0-1.1,12.9v3.7a65.2,65.2,0,0,0,1.1,12.9,15.93,15.93,0,0,0,4.4,8.3c2.9,2.7,7.3,4,13.5,4.1,6.1-.1,10.6-1.5,13.5-4.1a16.38,16.38,0,0,0,4.5-8.3A65.2,65.2,0,0,0,2681.7,803.8Z" transform="translate(-158.4)"/></g><path class="cls-3" d="M1613.7,453.4c-9.5,0-18.5-4.3-25.3-12.1a26.06,26.06,0,0,1-3.1-4.3l-37.7-65.7-8.9,51.6a32.85,32.85,0,0,1-12.7,22.8,35.91,35.91,0,0,1-22.3,7.7h-11.3a32,32,0,0,1-24.5-10.7c-5.2-5.9-7.9-13.7-7.9-23a29.66,29.66,0,0,1,.3-4.2c2.5-16.2,8.6-51.7,17.9-105.6,9.1-52.4,15.5-88.2,19.1-106.3a35.86,35.86,0,0,1,8.9-19.3,26.67,26.67,0,0,1,16.4-9,32,32,0,0,1,9.2-1.3h11.7c18.5,0,32.4,14.4,32.4,33.4a25.92,25.92,0,0,1-.4,4.8l-1.6,9.1c19.2-19,31.8-31.3,37.4-37a34.46,34.46,0,0,1,24.4-10.4h14.1c12.9,0,23.9,7.4,29.6,19.7a27.39,27.39,0,0,1,2.5,11.3c0,7.3-1,13.2-3.2,18.3a26.92,26.92,0,0,1-5.9,8.6l-72,71.2c26.6,46.4,45.5,79.2,56.3,97.7,6.7,9.5,7.4,21.5,2.1,33.1-.3.6-.5,1.1-.8,1.6a34.13,34.13,0,0,1-30.4,18Z" transform="translate(-158.4)"/><path class="cls-3" d="M1633.1,513.9a66.2,66.2,0,0,1-7.7-.4,63.09,63.09,0,0,1-7.6-.8c-.8-.1-1.4-.2-1.9-.3a29.29,29.29,0,0,1-14.4-4.4,36.18,36.18,0,0,1-3.8-2.6,28.56,28.56,0,0,1-11.6-23v-5.2a27.61,27.61,0,0,1,3.1-12.6c.2-.6.8-2.2,1.9-5.6a26.23,26.23,0,0,1,6.8-11.3l3.8-3.8a22.58,22.58,0,0,1,2.9-2.5c8.6-6.5,18.3-6.5,21.5-6.5a61.08,61.08,0,0,1,8.5.8.9.9,0,0,1,.5.1,16.18,16.18,0,0,0,1.8-1.9l10.6-19.7c-14.2-69.5-23.4-115.5-27.4-136.7a28.25,28.25,0,0,1-.5-5c0-12.3,6-23,16.1-28.8.2-.1.3-.2.5-.3,7.2-3.9,12.7-6.1,19.6-6.1h11.4c16.8,0,30.1,11.4,32.1,27.3l9.1,43.1q20.85-37.8,28.1-51.2a33,33,0,0,1,30.6-19.2h11.7c6.2,0,15.5,1.9,24.4,10.7a27.24,27.24,0,0,1,8,19.3,32.84,32.84,0,0,1-8.4,22.4L1705,467c-6.6,12.9-16.6,24.3-29.8,33.8a13,13,0,0,1-1.5,1C1660.8,509.8,1647.1,513.9,1633.1,513.9Z" transform="translate(-158.4)"/><path class="cls-3" d="M1813.3,456.2c-21.7,0-39.2-6.5-52-19.2-10.1-9.8-21.4-28.4-16.5-60.2,0-.2.1-.4.1-.6,4.5-24,16.6-43.2,35.6-56.5a28.69,28.69,0,0,1-4.5-6.8,32.14,32.14,0,0,1-2.2-5.4c-2.3-6.1-3.4-15.5,2.5-27.4a23,23,0,0,1,3.2-4.9,108.25,108.25,0,0,1,40.4-30.9,135.17,135.17,0,0,1,25-8.1,128.92,128.92,0,0,1,27-2.8c22.6,0,41,6.9,54.7,20.6a19.2,19.2,0,0,1,1.4,1.5c13.9,16.2,18.7,36.3,13.4,56.7L1923.9,410a17.42,17.42,0,0,1-.5,2.2h0a57.91,57.91,0,0,0-.4,9.3c0,11.6-4.9,18.9-9,23a27.31,27.31,0,0,1-11.2,6.7,28.2,28.2,0,0,1-11.8,2.6h-13a32.74,32.74,0,0,1-21.1-8A96.55,96.55,0,0,1,1813.3,456.2Z" transform="translate(-158.4)"/><path class="cls-3" d="M2046.2,453.4A31.53,31.53,0,0,1,2016,432l-16-44.1-6.6,37a34,34,0,0,1-33.4,28.5h-26.8a31.8,31.8,0,0,1-25.1-12A31.3,31.3,0,0,1,1902,415c1.8-11.3,7.6-44.2,17.6-100.5,10.3-57.8,16-90.7,17.6-100.6.2-1.1.4-2.1.7-3.2a35.29,35.29,0,0,1,11.5-17.6,33.91,33.91,0,0,1,21.5-7.7h35.3c13.7,0,25.2,7.8,29.9,20.4l17.1,46.3,6.8-38.5a32.56,32.56,0,0,1,12.9-21.2,34.74,34.74,0,0,1,20.8-7h26.4a31.73,31.73,0,0,1,32.1,31.4,29.22,29.22,0,0,1-.4,5.1c0,.3-.1.6-.1.9-9.7,54.6-21.7,122.5-35.6,201.8a34.42,34.42,0,0,1-33.7,28.6Z" transform="translate(-158.4)"/><path class="cls-3" d="M2200.1,453.6c-30.4,0-54-8.4-69.9-24.9-19.4-19.2-25.9-48.2-19.3-86.2l.3-1.8c6.2-34.7,19.1-61.1,38.4-78.3,18.2-16.3,41.2-24.6,68.3-24.6,36.2,0,55.7,15.4,65.6,28.3,14.2,18.2,18.8,43.4,14.1,76.9,0,0-1.1,7.3-1.1,7.5-.9,5.1-1.7,9.3-2.4,12.8a34.26,34.26,0,0,1-11.7,20.3,38.78,38.78,0,0,1-7.2,4.7,14.8,14.8,0,0,1,.8,1.3,31.89,31.89,0,0,1,3.1,25.4,36.66,36.66,0,0,1-11.4,17.5,28.32,28.32,0,0,1-2.8,2C2244.6,447.1,2222.8,453.6,2200.1,453.6Z" transform="translate(-158.4)"/><path class="cls-3" d="M2422.6,452.6a31.58,31.58,0,0,1-31.6-26.8c-1.4,2.8-2.5,5.2-3.5,7.1a33.38,33.38,0,0,1-30.8,19.7h-31.1a31.52,31.52,0,0,1-31.6-26.9c-.1-.5-.1-1-.2-1.5-.6-5.8-2.2-18.2-4.9-38.2-2.6-19.7-5.5-41.3-8.5-64.7s-5-37.8-5.6-43a33.58,33.58,0,0,1,8-26.3,34.06,34.06,0,0,1,25.8-11.9h27.7a31.58,31.58,0,0,1,31.6,26.8v.2c1.4-3,2.6-5.5,3.6-7.4,6.2-12.3,17.6-19.5,30.7-19.5h31.1c16.3,0,29.3,11.2,31.7,26.9,1.4-3,2.6-5.4,3.6-7.4,6.2-12.3,17.6-19.5,30.7-19.5H2527a31.42,31.42,0,0,1,28.6,17.4,32.83,32.83,0,0,1,0,29.3c-4.6,9.6-16.8,34.9-36.3,75.3,0,0-31.1,64.5-34.3,71-6.1,12.3-17.6,19.5-30.7,19.5Z" transform="translate(-158.4)"/><path class="cls-3" d="M2579,457.9c-10.6,0-22.7-2.3-36.8-7.1-14.3-4.8-26.5-11.3-36.1-19.4a31,31,0,0,1-11-28.5,34.56,34.56,0,0,1,9.8-19.9,17.11,17.11,0,0,1,2-1.8c.3-.3,3.2-2.8,18.7-17.3-11.6-14.5-16-32.6-12.5-52.5,3.8-20.7,15.2-38.4,33.9-52.7a98.36,98.36,0,0,1,61.2-20.9c10.4,0,22.3,2.3,36.4,7.1,14.3,4.9,26.3,11.4,35.7,19.6a31.26,31.26,0,0,1,11.1,26.5,33,33,0,0,1-11.3,22.8c-2.9,2.7-9.9,9.3-21.1,19.7-.1.1-.2.2-.3.2a58.27,58.27,0,0,1,14.9,51c-3.4,20.2-14.7,37.8-33.6,52.3A97.6,97.6,0,0,1,2579,457.9Z" transform="translate(-158.4)"/><g class="cls-1"><path class="cls-2" d="M1650.1,204c0,3.4-.3,5.9-1,7.5l-86.4,85.4q49.5,86.4,67.3,116.8c1.4,1.4,1.4,3.5,0,6.5a6.93,6.93,0,0,1-6.5,3.8h-14q-2.4,0-4.8-2.7l-61.1-106.6-21.5,21.5-14,81.3a5.6,5.6,0,0,1-2.4,4.6,8.37,8.37,0,0,1-5.5,1.9h-11.3a5,5,0,0,1-3.9-1.4q-1.2-1.35-1.2-5.1,3.75-23.85,17.8-104.5t19.1-106.6a7.93,7.93,0,0,1,2.4-5.1,15.38,15.38,0,0,0,2.6-.5,13.78,13.78,0,0,1,2.6-.5h11.6c3.4,0,5.1,2,5.1,6.1l-16.7,92.9q82.65-81.3,98-96.7a7.17,7.17,0,0,1,5.1-2.4h14C1647.3,200.2,1648.9,201.5,1650.1,204Z" transform="translate(-158.4)"/></g><g class="cls-1"><path class="cls-2" d="M1780.2,265.5q0,3.75-2.7,5.1L1678.4,451c-4.6,9.1-11.7,17.2-21.5,24.3q-15.3,9.6-31.8,7.5a49.31,49.31,0,0,1-5.6-.5c-2.4-.3-3.9-.5-4.6-.5a3,3,0,0,1-1.5-.5,9.74,9.74,0,0,1-1.5-1,1.31,1.31,0,0,1-.7-1.2V474a61.77,61.77,0,0,0,3.8-10.2l3.8-3.8c.9-.7,2.6-1,5.1-1,.7,0,2.2.2,4.6.5a51.29,51.29,0,0,0,5.6.5,22.49,22.49,0,0,0,12.6-3.8c5.5-4.1,9.3-8.3,11.6-12.6l15-28q-23-112.05-29-144.8,0-3.75,2.4-5.1c3.4-1.8,5.6-2.7,6.5-2.7h11.3c3.4,0,5.1,1.4,5.1,4.1l24.3,115.5q51.9-93.9,63.5-115.5a6.16,6.16,0,0,1,6.1-4.1h11.6C1776.7,262.7,1778.4,263.6,1780.2,265.5Z" transform="translate(-158.4)"/></g><g class="cls-1"><path class="cls-2" d="M1904.6,270.6c8.4,9.8,10.9,20.8,7.5,33.1l-17.8,99.1c-.9,3.4-1.4,8.9-1.4,16.4,0,1.8-.3,3.1-1,3.8a4.31,4.31,0,0,0-2,.7,5.13,5.13,0,0,1-1.7.7h-13a5.17,5.17,0,0,1-3.4-1.5,4.75,4.75,0,0,1-1.7-3.6,93.39,93.39,0,0,1,.7-9.7,95.74,95.74,0,0,0,.7-10.4v-2.7q-28.35,30.45-61.1,30.4c-14.3,0-25.3-3.8-32.8-11.3-8.4-8.2-11.4-20.5-8.9-36.9,4.6-24.4,19.8-40.9,45.8-49.5a119.58,119.58,0,0,1,15.5-4.8,132.09,132.09,0,0,1,15.9-2.4c5.5-.5,9.8-.7,13.2-.9s7.9-.1,13.8.2,9.7.3,11.3.3h1.4l3.8-19.1c1.4-6.4-.1-11.4-4.3-15s-10.8-5.5-19.6-5.5a70.37,70.37,0,0,0-27.8,5.5,50.06,50.06,0,0,0-20.7,15c-3.2,3-6.1,3.8-8.9,2.4-.9-.5-2.4-1.3-4.4-2.6s-3.5-2.1-4.4-2.6a2,2,0,0,1-1.7-1.4,5,5,0,0,1-.7-2.4c-.9-.9-.6-3,1-6.1a82.08,82.08,0,0,1,30.4-23.3,102.08,102.08,0,0,1,19.6-6.3,100.65,100.65,0,0,1,21.3-2.2C1884.3,257.9,1896.1,262.2,1904.6,270.6Zm-28.1,104.2,7.5-36.9c-21.9,0-38.8,1.3-50.9,3.8a54.29,54.29,0,0,0-25.3,13.2c-7.5,6.7-12.2,14.6-14,23.7-2.5,8.9-1.3,15.3,3.8,19.1,3.2,4.1,9.1,6.1,17.8,6.1,9.8,0,20.4-2.7,31.8-8A96.58,96.58,0,0,0,1876.5,374.8Z" transform="translate(-158.4)"/></g><g class="cls-1"><path class="cls-4" d="M2116.7,211.2a5,5,0,0,1,3.8,1.5,4.66,4.66,0,0,1,1,3.9q-14.4,80.55-35.5,201.2a6.08,6.08,0,0,1-2.4,4.1,7,7,0,0,1-4.4,1.7H2043c-2.3,0-3.8-1-4.4-3.1L1988,281.1l-24.3,136.6a6.67,6.67,0,0,1-2.2,4.1,6.5,6.5,0,0,1-4.3,1.7h-26.6a4.72,4.72,0,0,1-3.8-1.7,4.47,4.47,0,0,1-.7-4.1c1.6-10,7.5-43.6,17.6-100.6s16-90.6,17.6-100.6a7.52,7.52,0,0,1,2.6-3.9,6.63,6.63,0,0,1,4.3-1.5h35.2c2.3,0,3.8.9,4.4,2.7l51.6,140,24.3-137.3a5.48,5.48,0,0,1,2.4-3.9,7.31,7.31,0,0,1,4.4-1.5h26.2Z" transform="translate(-158.4)"/></g><g class="cls-1"><path class="cls-4" d="M2259.5,280.2c9.6,12.3,12.5,31.5,8.9,57.7l-1,6.8c-.9,5-1.7,9.3-2.4,13a6.08,6.08,0,0,1-2.4,4.1,6.62,6.62,0,0,1-4.1,1.7h-90.2c0,8,2.1,13.9,6.1,17.8,5,5.2,14.5,7.9,28.4,7.9a51.36,51.36,0,0,0,25.6-6.8c3-1.8,5.3-1.5,7.2,1,2,3,6.8,9.7,14.3,20.2a4.78,4.78,0,0,1,.3,4.1,8.69,8.69,0,0,1-2.7,4.1c-16.2,10.2-33.3,15.4-51.2,15.4-23.5,0-40.6-5.7-51.6-17.1-13.4-13.2-17.4-35-12-65.2v-.3c5.2-29.4,15.4-50.8,30.4-64.2q20.1-18.15,51.2-18.1C2235.1,262,2250.1,268.1,2259.5,280.2Zm-29.1,57.7c2.5-15.3,1.6-25.7-2.7-31.4-3.4-4.3-10.1-6.5-20-6.5s-17.3,2.2-22,6.5c-6.4,5.7-11,16.2-14,31.4Z" transform="translate(-158.4)"/><path class="cls-4" d="M2526.4,267.9a5.45,5.45,0,0,1-.2,5.1c-4.6,9.6-16.7,34.7-36.4,75.5s-31.1,64.4-34.3,71c-1.4,2.7-3.4,4.1-6.1,4.1H2418c-2.7,0-4.3-1.4-4.8-4.1L2401.6,330q-34.5,71.7-43.4,89.5a6.16,6.16,0,0,1-6.1,4.1H2321c-2.7,0-4.3-1.4-4.8-4.1-.7-6.1-2.3-19.1-5-38.8s-5.5-41.3-8.5-64.7-5-37.8-5.6-43a6.38,6.38,0,0,1,1.7-5.1,6.54,6.54,0,0,1,5.1-2.4h27.7c2.7,0,4.3,1.4,4.8,4.1l11.6,89.5q34.8-71.7,43.4-89.5c1.4-2.7,3.4-4.1,6.1-4.1h31.1c3,0,4.6,1.4,4.8,4.1l11.6,89.5q34.8-71.7,43.4-89.5c1.4-2.7,3.4-4.1,6.1-4.1h27.7A4.3,4.3,0,0,1,2526.4,267.9Z" transform="translate(-158.4)"/><path class="cls-4" d="M2581.2,305.1c-3.6,2.5-5.7,5.1-6.1,7.9-.5,3,1.6,5.8,6.1,8.5a43.26,43.26,0,0,0,5.1,3.1,56.8,56.8,0,0,0,6,2.6c2.2.8,4.2,1.5,6,2s3.9,1.3,6.3,2.2a59.56,59.56,0,0,0,6,2q38.25,14.7,33.1,43c-2.3,13.4-10,25.2-23.2,35.4a71.3,71.3,0,0,1-44.4,15.2c-7.5,0-16.9-1.9-28-5.6s-20.3-8.6-27.3-14.5a4.1,4.1,0,0,1-1.4-3.9,7,7,0,0,1,2.1-4.3c1.1-.9,8.3-7.5,21.5-19.8,2.7-2.5,5.3-2.7,7.9-.7a51.22,51.22,0,0,0,15.7,7.9c6.4,2,11.7,3.1,16.1,3.1a30.2,30.2,0,0,0,17.4-5.1c3.4-2.3,5.3-4.7,5.8-7.2l-1-1c-1.1-.9-2.6-1.9-4.4-3.1q-4.5-2.1-19.5-7.5-20.85-7.2-29.7-14.7c-12.1-9.6-16.7-22.1-14-37.6,2.5-13.7,10.4-25.6,23.6-35.7a71.3,71.3,0,0,1,44.4-15.2c7.3,0,16.4,1.9,27.5,5.6s20,8.6,26.8,14.5a4.39,4.39,0,0,1,1.5,3.9,6.24,6.24,0,0,1-2.2,4.3c-2.7,2.5-9.9,9.2-21.5,20.2-2.5,2.3-5,2.6-7.5,1-10.9-8-21.4-11.8-31.4-11.6C2591.5,300.2,2585.8,301.9,2581.2,305.1Z" transform="translate(-158.4)"/></g><path class="cls-5" d="M773.2,0h-356C256.5,148.6,158.4,346.8,158.4,564.4c0,64.2,5.9,150.4,24.8,186.7,3.9,7.4-2.4-34.7-2.4-52.2C180.8,372.3,429.9,94.9,773.2,0Z" transform="translate(-158.4)"/><path class="cls-5" d="M2560.3,1062h325.5c148.9-142.7,240.9-329.6,245.1-535.8,1.3-64.2-2.9-150.5-21-187.2-3.7-7.5,1.7,34.7,1.3,52.2C3105,700,2876.9,960.3,2560.3,1062Z" transform="translate(-158.4)"/></svg>