<svg id="Capa_1" data-name="Capa 1" xmlns="http://www.w3.org/2000/svg" viewBox="0 0 441.25 93"><defs><style>.cls-1{fill:#dcc5dd;}</style></defs><g id="a21a47fe-efbf-4614-8f7d-15f479292d28"><path class="cls-1" d="M235,116.33H141.23a20.77,20.77,0,0,0-20.77,20.77h0a.64.64,0,0,0,.63.64.66.66,0,0,0,.51-.25,24.9,24.9,0,0,1,19.66-9.62h74.6a25,25,0,0,1,24.95,24.95h0v38.3a24.91,24.91,0,0,1-6.53,16.81.83.83,0,0,0,.6,1.4H235a20.77,20.77,0,0,0,20.77-20.77h0V142.62C255.73,125.63,246.43,116.33,235,116.33Z" transform="translate(-120.46 -116.33)"/><path class="cls-1" d="M215.86,136.22h-74.6a16.62,16.62,0,0,0-16.6,16.6v38.3a16.62,16.62,0,0,0,16.6,16.6h74.6a16.61,16.61,0,0,0,16.59-16.6v-38.3A16.61,16.61,0,0,0,215.86,136.22Zm-19,41.5-12.6,6L165,192.91a7.37,7.37,0,0,1-3.16.78,5,5,0,0,1-2.77-.79c-1.17-.73-2.56-2.26-2.56-5.36q0-5.56,0-11.15V156.45c0-3.18,1.42-4.72,2.61-5.45s3.2-1.3,6,.12L197,167.22c2.38,1.2,3.59,2.95,3.61,5.19,0,1.61-.61,3.84-3.69,5.31Z" transform="translate(-120.46 -116.33)"/><g id="e9b776e7-c743-4080-b717-9ccc5b5a33f3"><path class="cls-1" d="M305.85,179.82l-14.93-53.91h13l5.23,24.44q2,9,2.95,15.4h.38q.66-4.58,2.95-15.31l5.41-24.53h13l-15.12,53.91v25.86H305.84V179.82Z" transform="translate(-120.46 -116.33)"/><path class="cls-1" d="M337.8,204a14.53,14.53,0,0,1-5.61-8.27,54.45,54.45,0,0,1-1.66-14.93v-8.46q0-9.41,1.9-15.11a15.18,15.18,0,0,1,5.94-8.32q4-2.61,10.61-2.61t10.36,2.65a15.25,15.25,0,0,1,5.7,8.32q1.81,5.67,1.81,15.07v8.46a52.15,52.15,0,0,1-1.76,15,14.73,14.73,0,0,1-5.71,8.28q-3.93,2.61-10.69,2.61C344.05,206.64,340.43,205.74,337.8,204Zm14.73-9.13q1.1-2.85,1.1-9.31V167.38c0-4.18-.36-7.25-1.1-9.18a3.92,3.92,0,0,0-3.85-2.9c-1.77,0-3,1-3.75,2.9s-1.1,5-1.1,9.18v18.15c0,4.31.35,7.42,1.05,9.31a3.83,3.83,0,0,0,3.8,2.86,3.91,3.91,0,0,0,3.85-2.86Z" transform="translate(-120.46 -116.33)"/><path class="cls-1" d="M409.21,205.69H399l-1.14-7.13h-.29q-4.18,8.07-12.55,8.07-5.79,0-8.56-3.79T373.66,191V147.41h13.12v42.77a13,13,0,0,0,.85,5.56,3,3,0,0,0,2.86,1.67,5.84,5.84,0,0,0,3.28-1,6.58,6.58,0,0,0,2.33-2.66V147.39h13.11Z" transform="translate(-120.46 -116.33)"/><path class="cls-1" d="M444.86,136.47h-13v69.22H419V136.47H406V125.92h38.89Z" transform="translate(-120.46 -116.33)"/><path class="cls-1" d="M476.5,205.69H466.24l-1.14-7.13h-.28q-4.19,8.07-12.56,8.07-5.79,0-8.55-3.79T441,191V147.41h13.12v42.77a13.16,13.16,0,0,0,.85,5.56,3,3,0,0,0,2.86,1.67,5.81,5.81,0,0,0,3.28-1,6.51,6.51,0,0,0,2.33-2.66V147.39H476.5Z" transform="translate(-120.46 -116.33)"/><path class="cls-1" d="M519.93,156.72q-1.2-5.52-3.85-8a10.3,10.3,0,0,0-7.32-2.47,12,12,0,0,0-6.76,2,13.86,13.86,0,0,0-4.84,5.38h-.1V123H484.42v82.71h10.83l1.34-5.52h.28a11.24,11.24,0,0,0,4.57,4.67,13.6,13.6,0,0,0,6.75,1.7A10.33,10.33,0,0,0,518,200.4q3.13-6.14,3.14-19.16V172A76.12,76.12,0,0,0,519.93,156.72Zm-12,23.78a72.39,72.39,0,0,1-.52,10,10.83,10.83,0,0,1-1.76,5.13,4.06,4.06,0,0,1-3.33,1.52,6.06,6.06,0,0,1-3-.76,5.82,5.82,0,0,1-2.23-2.28V161a8.19,8.19,0,0,1,2.28-3.9,5,5,0,0,1,3.52-1.52,3.51,3.51,0,0,1,3.08,1.57,12,12,0,0,1,1.53,5.27,97.83,97.83,0,0,1,.42,10.55v7.52Z" transform="translate(-120.46 -116.33)"/><path class="cls-1" d="M539.74,183.86a78.62,78.62,0,0,0,.33,8.41,8,8,0,0,0,1.38,4.1,4,4,0,0,0,3.22,1.28,4.07,4.07,0,0,0,4-2.29c.74-1.52,1.13-4.06,1.19-7.61l11.32.67a16.25,16.25,0,0,1,.1,2.09q0,8.09-4.42,12.07t-12.5,4q-9.71,0-13.59-6.09t-3.9-18.82V171.49q0-13.11,4-19.16t13.83-6q6.75,0,10.37,2.47a13.3,13.3,0,0,1,5.09,7.71,55.84,55.84,0,0,1,1.47,14.45v10h-22Zm1.66-27.47a8,8,0,0,0-1.33,4,80.6,80.6,0,0,0-.33,8.51v4.18h9.6v-4.18a71.19,71.19,0,0,0-.39-8.51,8.13,8.13,0,0,0-1.38-4.1,3.83,3.83,0,0,0-3.08-1.19,3.74,3.74,0,0,0-3.09,1.25Z" transform="translate(-120.46 -116.33)"/></g></g></svg>