<svg id="e720d80b-e56f-4075-a1db-c3135e37f1d2" data-name="Capa 1" xmlns="http://www.w3.org/2000/svg" viewBox="0 0 2582 2274">
  <defs>
    <style>
      .e8d744ae-a20e-4661-a262-a370dcf0fb4e {
        fill: #97e0d4;
      }

      .b1956179-c36b-4b5d-8bb7-ad82a74eca42 {
        fill: #52d2bc;
      }
    </style>
  </defs>
  <title>store_icono_boton_descarga_sticker_telegram</title>
  <g>
    <path class="e8d744ae-a20e-4661-a262-a370dcf0fb4e" d="M1732.318,346.62581l-122.28538,57.43583c-7.31958,3.754,5.0368,6.25626,9.02939,9.24783a78.53531,78.53531,0,0,1,30.56956,74.93746l-183.763,1194.41915a78.63029,78.63029,0,0,1-121.42554,53.52841L805.84042,1377.12035c-33.42012-22.30462-47.26142-68.73727-22.11333-109.09655a15.37837,15.37837,0,0,1,1.03726-1.45926l93.11876-116.402c8.41948-10.52467-4.5441-24.66444-15.75857-17.18837l-195.99608,130.6597a78.12461,78.12461,0,0,1-59.08807,11.68971l-254.53758-50.90647c-12.82425-2.5648-19.67665,14.53608-8.62979,21.53654l1238.9445,785.12665c36.19836,22.66359,83.33747-.108,88.95475-42.97223L1815.327,408.64208C1821.45707,361.8609,1774.35254,326.66717,1732.318,346.62581Z"/>
    <path class="b1956179-c36b-4b5d-8bb7-ad82a74eca42" d="M1127.26435,814.41242a68.1003,68.1003,0,0,1,90.92512,99.23871L914.97967,1292.669a11.79918,11.79918,0,0,0,2.6688,17.18843l425.58517,283.7144a11.79919,11.79919,0,0,0,18.20685-8.02348l157.036-1020.75077a11.79918,11.79918,0,0,0-16.65165-12.48636L361.94705,1084.25052c-10.32678,4.81913-8.499,20.02731,2.67561,22.26227l244.80392,48.96177a11.79918,11.79918,0,0,0,8.85894-1.75244Z"/>
  </g>
</svg>
