<svg id="Capa_1" data-name="Capa 1" xmlns="http://www.w3.org/2000/svg" viewBox="0 0 1012.99 1319"><defs><style>.cls-1{fill:#666;}.cls-2{fill:#cc9ed2;}.cls-3{fill:#bc77c6;}</style></defs><g id="a75f6280-73a6-483f-80fa-3da0ef70cf8d"><path class="cls-1" d="M467.92,1200.5h-4a31,31,0,0,0,5.18.41c17.65,0,35.3-.25,53-.38Z" transform="translate(-246 -135)"/><path class="cls-2" d="M1256.67,1297.35C1242,1053.81,1130.55,851.43,971.46,778.2c-4.36-2-8.59-4.59-14.11-7.57,18.37-24.21,102.75-140.61,88.57-303.39C1035.8,351,975.66,213.78,862.23,159.62c-71.58-34.17-140-23.61-154.3-21.13C641.72,150,597.64,184.68,577.78,200.72c-55.22,44.58-84.73,98.07-98.67,128,10.32-8.8,131.41-108.56,269.76-54C849.22,314.25,893,409.12,903.17,432c54.11,121.94,33.13,277.07-50,401.34,5.14,2.7,9.09,5,13.15,6.87,148.32,66.51,252.23,250.3,265.9,471.46,1.94,31.26,2.33,62.81,2.13,94.2-.06,8.22,3.16,31.29-8.12,41-3.29,2.84-5.84,2.92-5.79,4.21.2,5,38.88.56,102.53,2.34,9,.26,19.42.82,27.06-7,6.84-7,8.75-20.41,8.91-45.43C1259.17,1366.5,1258.74,1331.76,1256.67,1297.35Z" transform="translate(-246 -135)"/><path class="cls-3" d="M537.34,867.47C404.12,756.76,408.07,547,493,435.75c85.66-112.14,226.83-107,307.93,12C878.18,561,875.83,759.4,748.16,866.5c5.35,2.56,9.45,4.78,13.68,6.51,154.25,63,262.3,237.12,276.53,446.65,2,29.61,2.41,59.5,2.2,89.24-.27,38.56-6,45.13-34.87,45.1q-330.83-.33-661.66-.58c-24.16,0-48.32.5-72.48.5-15.74,0-24.49-11.06-25.09-31C241,1242,283.41,1086.56,392.05,967.73c39.66-43.38,84.59-75.56,134.61-94.8C530.15,871.59,533.47,869.47,537.34,867.47Z" transform="translate(-246 -135)"/></g></svg>