<svg id="e9615622-377c-4992-92cf-a2fe48828bb8" xmlns="http://www.w3.org/2000/svg" viewBox="0 0 1401.3 1401.3"><defs><style>.cls-1{fill:#97e0d4;stroke:#97e0d4;}.cls-1,.cls-4{stroke-miterlimit:10;}.cls-2,.cls-3{fill:#52d2bc;}.cls-3{fill-rule:evenodd;}.cls-4{fill:none;stroke:#dcedec;stroke-width:27.35px;}</style></defs><path class="cls-1" d="M1624.8,449.4h-898c-138.7,0-251.2,112.5-251.2,251.2h0c0,9.3,11.7,13.8,17.7,6.6C549,640.1,633,597.3,726.8,597.3h697.9c167.5,0,303.3,135.8,303.3,303.3v697.9c0,93.8-42.8,177.8-109.9,233.5-7.2,6-2.7,17.7,6.6,17.7h0c138.7,0,251.2-112.5,251.2-251.2v-898C1875.9,561.9,1763.5,449.4,1624.8,449.4Z" transform="translate(-475.1 -448.9)"/><path class="cls-2" d="M1424.7,701.6H726.8c-109.7,0-199,89.3-199,199v697.9c0,109.7,89.3,199,199,199h697.9c109.7,0,199-89.3,199-199V900.6C1623.7,790.9,1534.5,701.6,1424.7,701.6Zm-347.1,959.6h-.2a415.13,415.13,0,0,1-198.3-50.5l-220,57.7,58.9-215a413.46,413.46,0,0,1-55.4-207.3c.1-228.7,186.3-414.9,415-414.9,111,.1,215.1,43.4,293.6,121.7,78.3,78.5,121.5,182.6,121.3,293.4-.1,228.9-186.2,414.9-414.9,414.9Z" transform="translate(-475.1 -448.9)"/><path class="cls-3" d="M1134,1191.7c23.6-13.4,33.9-63.2.1-80-23.4-11.7-92.9-7.8-121.7-6.6v92.7C1075.4,1197,1099.6,1200.3,1134,1191.7Z" transform="translate(-475.1 -448.9)"/><path class="cls-3" d="M1110.5,1265.7c-29.7.4-63.9.4-98.1.4V1367h85c36.2-.1,68.4-17,67.6-53C1164.5,1280,1141.9,1268.8,1110.5,1265.7Z" transform="translate(-475.1 -448.9)"/><path class="cls-3" d="M1318.1,1004.1a342.36,342.36,0,0,0-243.8-101.2c-190.3,0-345,154.7-345,344.8A343.76,343.76,0,0,0,782,1431.1l8.2,13.1-34.9,127.2,130.5-34.3,12.7,7.5a343.71,343.71,0,0,0,175.4,48h.2c190,0,344.8-154.7,344.9-344.8C1419.2,1155.9,1383.3,1069.2,1318.1,1004.1Zm-210.8,429c-35.8,0-86.2.1-144.6.2-13.7,0-19.8,0-22.7-1.8-4.7-2.7-9.2-5.1-9.2-20.1.1-74,.2-245.3,0-308.6-.1-39.9-5.4-65.7,29.4-65.7,94,0,231.3-17.7,263.3,60.3,32.2,78.8-19.9,117-31.4,137.3C1270.4,1256.8,1274.7,1433.1,1107.3,1433.1Z" transform="translate(-475.1 -448.9)"/><path class="cls-4" d="M1371.1,953.1c-78.5-78.3-182.6-121.6-293.6-121.7-228.7,0-414.9,186.2-415,414.9a414.21,414.21,0,0,0,55.4,207.3l-58.9,215,220-57.7a413.7,413.7,0,0,0,198.3,50.5h.2c228.7,0,414.8-186.1,414.9-414.9C1492.6,1135.8,1449.5,1031.6,1371.1,953.1Z" transform="translate(-475.1 -448.9)"/></svg>