<svg xmlns="http://www.w3.org/2000/svg" viewBox="0 0 3300 2221">
  <defs>
    <style>
      .bc279a67-a4ea-4758-a121-f959efcd776e {
        fill: #dcedec;
      }

      .eda161ff-e55e-42a3-bb86-49542c7e7fa5 {
        fill: #97e0d4;
      }

      .a4428338-a29d-428b-964a-44d709f5a129 {
        fill: #cc9ed2;
      }

      .eb0ffb20-dfb0-4b26-9fe9-b4f1928e8de8 {
        fill: #bc77c6;
      }
    </style>
  </defs>
  <title>pagina web-servicios-izquierda</title>
  <g id="a0d3bbfc-bf8e-4c4a-9ec3-a267ef1c5722" data-name="Textos banners">
    <path class="bc279a67-a4ea-4758-a121-f959efcd776e" d="M164.20887,112.49088c24.17277-11.74468,72.71462-35.71874,107.62882-50.47548a7.692,7.692,0,0,0,4.71356-7.08824V11.1747a7.68954,7.68954,0,0,0-11.11686-6.8835L104.26562,84.53754a7.68954,7.68954,0,0,0-4.26223,6.8835V147.866a7.68954,7.68954,0,0,0,4.27425,6.88947l161.16877,79.89566a7.68955,7.68955,0,0,0,11.10484-6.88947V183.564a7.6927,7.6927,0,0,0-4.73151-7.09581c-34.90577-14.65255-83.42247-38.47329-107.5961-50.15333A7.6778,7.6778,0,0,1,164.20887,112.49088Z"/>
    <path class="bc279a67-a4ea-4758-a121-f959efcd776e" d="M159.22368,383.8278c24.17277-11.74469,72.71462-35.71875,107.62882-50.47548a7.692,7.692,0,0,0,4.71356-7.08824V282.51162a7.68954,7.68954,0,0,0-11.11686-6.8835L99.28043,355.87446a7.68954,7.68954,0,0,0-4.26223,6.8835V419.2029a7.68954,7.68954,0,0,0,4.27425,6.88947L260.46122,505.988a7.68955,7.68955,0,0,0,11.10484-6.88948V454.90088a7.69273,7.69273,0,0,0-4.73151-7.09582c-34.90577-14.65254-83.42247-38.47328-107.5961-50.15332A7.6778,7.6778,0,0,1,159.22368,383.8278Z"/>
    <path class="bc279a67-a4ea-4758-a121-f959efcd776e" d="M158.86759,646.97476c24.17277-11.74469,72.71462-35.71875,107.62883-50.47549A7.692,7.692,0,0,0,271.21,589.411V545.65858a7.68954,7.68954,0,0,0-11.11685-6.88351L98.92434,619.02141a7.68956,7.68956,0,0,0-4.26223,6.88351v56.44494a7.68954,7.68954,0,0,0,4.27425,6.88947L260.10513,769.135A7.68954,7.68954,0,0,0,271.21,762.24551V718.04784a7.69273,7.69273,0,0,0-4.73151-7.09582c-34.90577-14.65254-83.42247-38.47328-107.5961-50.15332A7.6778,7.6778,0,0,1,158.86759,646.97476Z"/>
    <path class="bc279a67-a4ea-4758-a121-f959efcd776e" d="M153.8824,918.31168c24.17277-11.74469,72.71462-35.71875,107.62882-50.47549a7.692,7.692,0,0,0,4.71356-7.08823V816.99549a7.68955,7.68955,0,0,0-11.11686-6.8835L93.93915,890.35833a7.68955,7.68955,0,0,0-4.26223,6.8835v56.44494a7.68956,7.68956,0,0,0,4.27425,6.88948l161.16877,79.89565a7.68954,7.68954,0,0,0,11.10484-6.88947V989.38476a7.69271,7.69271,0,0,0-4.73151-7.09582c-34.90577-14.65254-83.42247-38.47329-107.5961-50.15333A7.67779,7.67779,0,0,1,153.8824,918.31168Z"/>
    <path class="bc279a67-a4ea-4758-a121-f959efcd776e" d="M156.01891,1166.85914c24.17277-11.74469,72.71462-35.71875,107.62882-50.47548a7.692,7.692,0,0,0,4.71356-7.08824V1065.543a7.68954,7.68954,0,0,0-11.11686-6.8835L96.07566,1138.9058a7.68954,7.68954,0,0,0-4.26223,6.8835v56.44494a7.68954,7.68954,0,0,0,4.27425,6.88947l161.16877,79.89566a7.68955,7.68955,0,0,0,11.10484-6.88948v-44.19767a7.69273,7.69273,0,0,0-4.73151-7.09582c-34.90577-14.65254-83.42247-38.47328-107.5961-50.15332A7.6778,7.6778,0,0,1,156.01891,1166.85914Z"/>
    <path class="bc279a67-a4ea-4758-a121-f959efcd776e" d="M151.03372,1438.19606c24.17277-11.74469,72.71462-35.71875,107.62882-50.47549a7.692,7.692,0,0,0,4.71356-7.08823v-43.75246a7.68955,7.68955,0,0,0-11.11686-6.88351L91.09047,1410.24271a7.68956,7.68956,0,0,0-4.26223,6.8835v56.445a7.68954,7.68954,0,0,0,4.27425,6.88947l161.16877,79.89565a7.68954,7.68954,0,0,0,11.10484-6.88947v-44.19767a7.69273,7.69273,0,0,0-4.73151-7.09582c-34.90577-14.65254-83.42247-38.47328-107.5961-50.15333A7.67779,7.67779,0,0,1,151.03372,1438.19606Z"/>
    <path class="bc279a67-a4ea-4758-a121-f959efcd776e" d="M144.09005,1693.3311c24.17278-11.74469,72.71463-35.71875,107.62883-50.47549a7.692,7.692,0,0,0,4.71356-7.08823v-43.75246a7.68955,7.68955,0,0,0-11.11686-6.88351L84.14681,1665.37775a7.68956,7.68956,0,0,0-4.26223,6.88351v56.44494a7.68954,7.68954,0,0,0,4.27425,6.88947l161.16877,79.89565a7.68954,7.68954,0,0,0,11.10484-6.88947v-44.19767a7.69273,7.69273,0,0,0-4.73151-7.09582c-34.90578-14.65254-83.42247-38.47328-107.5961-50.15332A7.6778,7.6778,0,0,1,144.09005,1693.3311Z"/>
    <path class="eda161ff-e55e-42a3-bb86-49542c7e7fa5" d="M37.06519,25.30273C26.00732,20.66089,13.583,15.09839,1,9.294V68.7666L30.69189,83.48584a7.68958,7.68958,0,0,0,11.10474-6.88965V32.39844A7.69278,7.69278,0,0,0,37.06519,25.30273Z"/>
    <path class="bc279a67-a4ea-4758-a121-f959efcd776e" d="M151.45423,1959.3255c24.17277-11.74469,72.71462-35.71875,107.62882-50.47549a7.692,7.692,0,0,0,4.71356-7.08824v-43.75246a7.68954,7.68954,0,0,0-11.11686-6.8835L91.511,1931.37215a7.68954,7.68954,0,0,0-4.26223,6.8835v56.44494a7.68954,7.68954,0,0,0,4.27425,6.88947l161.16877,79.89566a7.68955,7.68955,0,0,0,11.10484-6.88947v-44.19767a7.69271,7.69271,0,0,0-4.73151-7.09582c-34.90577-14.65254-83.42247-38.47329-107.5961-50.15333A7.67779,7.67779,0,0,1,151.45423,1959.3255Z"/>
    <path class="bc279a67-a4ea-4758-a121-f959efcd776e" d="M252.67969,2104.12579,91.511,2184.37213a7.68933,7.68933,0,0,0-4.26221,6.88355V2221h60.093a7.632,7.632,0,0,1,4.1123-8.6745C175.627,2200.58081,224.169,2176.60675,259.083,2161.85a7.692,7.692,0,0,0,4.71362-7.08826v-43.75244A7.68962,7.68962,0,0,0,252.67969,2104.12579Z"/>
    <g>
      <path class="eda161ff-e55e-42a3-bb86-49542c7e7fa5" d="M42.87817,132.06055,1,152.91162v58.70581c16.62329-7.844,33.64844-15.648,48.28149-21.83276a7.6921,7.6921,0,0,0,4.71363-7.08838V138.94385A7.68953,7.68953,0,0,0,42.87817,132.06055Z"/>
      <path class="eda161ff-e55e-42a3-bb86-49542c7e7fa5" d="M53.99512,355.53076V311.33325a7.69287,7.69287,0,0,0-4.73145-7.096C34.63452,298.09644,17.61646,290.34521,1,282.55225v59.102l41.89014,20.76611A7.68971,7.68971,0,0,0,53.99512,355.53076Z"/>
    </g>
    <g>
      <path class="eda161ff-e55e-42a3-bb86-49542c7e7fa5" d="M49.01,626.86768V582.67017a7.69272,7.69272,0,0,0-4.73169-7.096C31.11011,570.04663,16.00488,563.21387,1,556.22046V615.4624l36.905,18.29492A7.6897,7.6897,0,0,0,49.01,626.86768Z"/>
      <path class="eda161ff-e55e-42a3-bb86-49542c7e7fa5" d="M37.89307,403.39746,1,421.7666v58.8418c15.01172-7.03955,30.12378-13.91944,43.29639-19.48682A7.69211,7.69211,0,0,0,49.01,454.0332V410.28076A7.68952,7.68952,0,0,0,37.89307,403.39746Z"/>
    </g>
    <g>
      <path class="eda161ff-e55e-42a3-bb86-49542c7e7fa5" d="M48.65381,890.01465V845.81714a7.69287,7.69287,0,0,0-4.73145-7.096C30.56543,833.11426,15.21631,826.16455,0,819.06689V878.29L37.54907,896.9043A7.68958,7.68958,0,0,0,48.65381,890.01465Z"/>
      <path class="eda161ff-e55e-42a3-bb86-49542c7e7fa5" d="M37.53711,666.54443,0,685.23413v58.824c15.22314-7.145,30.5791-14.14258,43.94043-19.78956a7.69225,7.69225,0,0,0,4.71338-7.08837V673.42773A7.6894,7.6894,0,0,0,37.53711,666.54443Z"/>
    </g>
    <g>
      <path class="eda161ff-e55e-42a3-bb86-49542c7e7fa5" d="M32.55176,937.88135,0,954.08887v58.97363c13.56519-6.32349,27.05225-12.42627,38.95508-17.457a7.69211,7.69211,0,0,0,4.71362-7.08838V944.76465A7.68952,7.68952,0,0,0,32.55176,937.88135Z"/>
      <path class="eda161ff-e55e-42a3-bb86-49542c7e7fa5" d="M43.6687,1161.35156v-44.19751a7.69269,7.69269,0,0,0-4.73169-7.09594c-11.89844-4.99463-25.37866-11.05518-38.937-17.33643v59.37671l32.56372,16.14282A7.68971,7.68971,0,0,0,43.6687,1161.35156Z"/>
    </g>
    <g>
      <path class="eda161ff-e55e-42a3-bb86-49542c7e7fa5" d="M45.80518,1409.89917v-44.19775a7.69254,7.69254,0,0,0-4.73145-7.09571C28.55029,1353.34863,14.27466,1346.91028,0,1340.2771v59.30957l34.7002,17.2019A7.68963,7.68963,0,0,0,45.80518,1409.89917Z"/>
      <path class="eda161ff-e55e-42a3-bb86-49542c7e7fa5" d="M34.68823,1186.42871,0,1203.7v58.9082c14.28149-6.67749,28.564-13.1604,41.09155-18.45532a7.69189,7.69189,0,0,0,4.71363-7.08813v-43.75244A7.68956,7.68956,0,0,0,34.68823,1186.42871Z"/>
    </g>
    <g>
      <path class="eda161ff-e55e-42a3-bb86-49542c7e7fa5" d="M40.81982,1681.23608v-44.19775a7.69251,7.69251,0,0,0-4.73144-7.0957C25.02393,1625.29785,12.59106,1619.7312,0,1613.92285v59.47205l29.71509,14.73059A7.68945,7.68945,0,0,0,40.81982,1681.23608Z"/>
      <path class="eda161ff-e55e-42a3-bb86-49542c7e7fa5" d="M29.70313,1457.76563,0,1472.55481V1531.622c12.5979-5.848,25.03711-11.45374,36.10645-16.1322a7.69206,7.69206,0,0,0,4.71337-7.08814v-43.75244A7.68936,7.68936,0,0,0,29.70313,1457.76563Z"/>
    </g>
    <g>
      <path class="eda161ff-e55e-42a3-bb86-49542c7e7fa5" d="M29.67969,1729.12573,0,1743.90344v59.06787c12.58984-5.84411,25.02075-11.44568,36.083-16.12121a7.69211,7.69211,0,0,0,4.71362-7.08838v-43.75244A7.68969,7.68969,0,0,0,29.67969,1729.12573Z"/>
      <path class="eda161ff-e55e-42a3-bb86-49542c7e7fa5" d="M40.79663,1952.59619v-44.19763a7.6927,7.6927,0,0,0-4.73144-7.09583C25.00732,1896.66089,12.583,1891.09839,0,1885.29382v59.4729l29.69189,14.719A7.68948,7.68948,0,0,0,40.79663,1952.59619Z"/>
    </g>
    <g>
      <path class="eda161ff-e55e-42a3-bb86-49542c7e7fa5" d="M41.79663,2185.73254a7.87782,7.87782,0,0,0-4.84546-7.2666C25.62207,2173.71021,12.89209,2168.0105,0,2162.06329V2221H41.79663Z"/>
      <path class="eda161ff-e55e-42a3-bb86-49542c7e7fa5" d="M30.41211,2002.14545,0,2017.28778v60.48877c12.89893-5.98773,25.63574-11.72742,36.96973-16.51776A7.877,7.877,0,0,0,41.79663,2054v-44.80542A7.87467,7.87467,0,0,0,30.41211,2002.14545Z"/>
    </g>
    <path class="a4428338-a29d-428b-964a-44d709f5a129" d="M1151.98892,244.10264H711.72516a58.33458,58.33458,0,0,0-58.33458,58.33458v30.27587a3.40843,3.40843,0,0,0,6.22645,1.92708,51.2789,51.2789,0,0,1,42.4523-22.54064h394.60653a51.364,51.364,0,0,1,51.364,51.364V598.75975a51.32419,51.32419,0,0,1-22.82968,42.67264,3.40822,3.40822,0,0,0,1.89854,6.24438h24.88042a58.33458,58.33458,0,0,0,58.33458-58.33458V302.43743A58.3348,58.3348,0,0,0,1151.98892,244.10264Z"/>
    <path class="eb0ffb20-dfb0-4b26-9fe9-b4f1928e8de8" d="M1110.37293,432.29829H688.37226a3.42426,3.42426,0,0,0-3.42426,3.42427V598.75975a17.12133,17.12133,0,0,0,17.12133,17.12133h394.60653a17.12133,17.12133,0,0,0,17.12133-17.12133V435.72256A3.42426,3.42426,0,0,0,1110.37293,432.29829ZM834.136,495.66874a2.84576,2.84576,0,0,1-1.7439,2.62254c-12.91791,5.45951-30.87692,14.32929-39.82047,18.67462a2.84058,2.84058,0,0,0,.00669,5.11446c8.94188,4.32129,26.89253,13.13422,39.80709,18.55528a2.84618,2.84618,0,0,1,1.75059,2.62546v16.35179a2.845,2.845,0,0,1-4.10812,2.549L770.39915,532.6027a2.84654,2.84654,0,0,1-1.58171-2.549V509.1706a2.84408,2.84408,0,0,1,1.5767-2.54668l59.62871-29.68916a2.84526,2.84526,0,0,1,4.11313,2.54688Zm99.9257-34.58939L890.424,579.97562a2.84586,2.84586,0,0,1-2.67187,1.8647H867.35537a2.84429,2.84429,0,0,1-2.67019-3.82513l43.63766-118.89627a2.84529,2.84529,0,0,1,2.67019-1.8647h20.39679A2.8459,2.8459,0,0,1,934.06168,461.07935Zm95.86775,68.84459a2.84585,2.84585,0,0,1-1.57838,2.54667l-59.627,29.689a2.84473,2.84473,0,0,1-4.11313-2.54668V543.4258a2.84532,2.84532,0,0,1,1.7439-2.62254c12.91624-5.45973,30.87692-14.32929,39.8188-18.67463a2.84008,2.84008,0,0,0-.005-5.11445c-8.94355-4.3213-26.89419-13.13443-39.80709-18.55549a2.84591,2.84591,0,0,1-1.75059-2.62526v-16.352a2.84455,2.84455,0,0,1,4.10812-2.54876l59.62871,29.55917a2.84631,2.84631,0,0,1,1.58172,2.549Z"/>
    <path class="eb0ffb20-dfb0-4b26-9fe9-b4f1928e8de8" d="M1113.79719,363.46185a17.11966,17.11966,0,0,0-17.11966-17.11966H702.06933A17.12133,17.12133,0,0,0,684.948,363.46352v31.16784a3.42426,3.42426,0,0,0,3.42426,3.42427h422.00067a3.42426,3.42426,0,0,0,3.42426-3.42427ZM722.5564,385.30826a13.07079,13.07079,0,1,1,13.07007-13.07089A13.071,13.071,0,0,1,722.5564,385.30826Zm41.82354,0a13.07079,13.07079,0,1,1,13.07173-13.07089A13.07069,13.07069,0,0,1,764.37994,385.30826Zm41.8252,0a13.07079,13.07079,0,1,1,13.07173-13.07089A13.07068,13.07068,0,0,1,806.20514,385.30826Z"/>
    <path class="eb0ffb20-dfb0-4b26-9fe9-b4f1928e8de8" d="M1041.09227,981.47064A276.04583,276.04583,0,0,1,879.40506,928.4049a276.25233,276.25233,0,0,1-161.4948,53.74115l.19572,93.70561c.23382,111.86855,66.65922,208.13927,162.13345,251.829,95.276-44.08839,161.28239-140.63962,161.04872-252.50444ZM913.95339,1089.46132a36.55531,36.55531,0,0,1-15.47868,29.89354v50.40208a21.76686,21.76686,0,0,1-21.76689,21.76689h0a21.76687,21.76687,0,0,1-21.7669-21.76689v-49.955a36.56352,36.56352,0,0,1-16.12362-30.3406v-.00008a36.60056,36.60056,0,0,1,36.60063-36.60059h1.93483a36.60056,36.60056,0,0,1,36.60063,36.60059Z"/>
    <path class="a4428338-a29d-428b-964a-44d709f5a129" d="M1135.16954,917.74467c.0688-1.85232-.01921-6.20211-2.90226-8.38429a7.57561,7.57561,0,0,0-4.83709-1.28989c-6.23767.08142-12.51454-1.42812-18.7034-.64494-9.59639,1.2144-99.33634,4.36933-177.02733-32.56973a273.64546,273.64546,0,0,1-45.482-27.41016,3.4306,3.4306,0,0,0-2.54451-1.61236c-1.22943.05877-2.07466,1.39349-2.22645,1.61236-1.97246,2.84407-25.82787,17.73175-45.482,28.05511-7.81366,4.10417-38.73229,19.97221-83.24735,32.24725-12.54888,3.46035-45.79236,9.67832-46.436,10.31912a2.98634,2.98634,0,0,0-.64495,2.25731c.17887,3.89805.1192,23.95057-.32247,29.02252-.14911,1.71338.01874,3.43982,0,5.15956-.02283,2.09674-.06267,3.14937.64494,3.86967.91908.93554,2.53806.74,3.22473.64495a457.70892,457.70892,0,0,0,84.4878-19.99329c10.84424-3.94776,9.922-3.59856,10.64159-3.86968a496.26868,496.26868,0,0,0,69.59738-32.33973,10.3029,10.3029,0,0,1,1.08661-.91223,9.058,9.058,0,0,1,1.50513-.89826q3.35858-2.37042,6.65635-4.82266a317.62254,317.62254,0,0,0,70.06692,39.2081q2.684.84655,5.50911,1.69962c40.0047,12.0606,78.05725,17.7312,98.91577,20.31577a64.84028,64.84028,0,0,0,6.79.71777c1.79171.09437,3.4861.109,5.06965.06841l.2258,109.49914a303.78911,303.78911,0,0,1-14.13825,96.30875c-38.5857,120.98549-143.2918,179.78114-174.536,195.85162a304.89833,304.89833,0,0,0,48.412-15.80115,311.08841,311.08841,0,0,0,117.046-86.94284c6.49889-7.80858,11.244-14.26933,14.31129-18.50567,34.77664-48.0316,47.63287-95.12073,55.31317-123.507,3.50767-12.96414,5.46644-22.33781,7.73934-33.21466,5.3441-25.57382,7.44395-50.3796,10.96406-154.46434C1134.9724,923.71157,1135.08388,920.35334,1135.16954,917.74467Z"/>
    <path class="a4428338-a29d-428b-964a-44d709f5a129" d="M927.72887,1491.38149c-101.33337-2.0081-189.97642,50.43928-236.08268,128.74953-2.19938,3.73559,3.06159,7.32856,5.9849,4.07591,47.62436-52.98974,119.93518-85.21706,199.772-80.24081,120.02948,7.48146,217.03166,99.77271,225.16729,214.25851,6.80613,95.77688-48.071,180.26182-130.41646,220.957-3.92882,1.94162-1.54773,7.68714,2.70668,6.52734,112.39884-30.641,194.18539-130.4555,191.41118-248.12246C1183.1111,1603.52636,1068.26293,1494.16643,927.72887,1491.38149Z"/>
    <path class="eb0ffb20-dfb0-4b26-9fe9-b4f1928e8de8" d="M881.25048,1578.78849c-112.95611,0-204.85429,87.668-204.85429,195.42632s91.89818,195.42631,204.85429,195.42631c112.95972,0,204.8579-87.668,204.8579-195.42631S994.2102,1578.78849,881.25048,1578.78849Zm-91.61193,108.90545c20.48743,0,37.09577,15.84391,37.09577,35.38829s-16.60834,35.38829-37.09577,35.38829c-20.48759,0-37.09593-15.84391-37.09593-35.38829S769.151,1687.69394,789.63855,1687.69394Zm25.967,66.28441v9.46972a1.26883,1.26883,0,0,1-1.57924,1.19021q-3.0675-.69472-6.19835-1.08382a1.24635,1.24635,0,0,1-1.12534-1.21105v-4.53529a1.22651,1.22651,0,0,1,.70486-1.09245,41.50228,41.50228,0,0,0,6.122-3.70234A1.2918,1.2918,0,0,1,815.60559,1753.97835Zm62.1355,71.72987a12.71976,12.71976,0,0,1-6.12082-1.41548L829.702,1805.36l3.15313,105.2801H754.212L748.2766,1805.36s-7.6046-34.14972,37.09592-39.10408h7.41915a72.39519,72.39519,0,0,1,45.99885,14.15535l34.4991,17.69412,24.85414-38.39628a12.77843,12.77843,0,0,1,17.06412-3.89269,11.53742,11.53742,0,0,1,3.895,16.27857l-30.78952,47.95114A12.56708,12.56708,0,0,1,877.74109,1825.70822ZM948.29163,1706.015l-27.565,45.77466a2.518,2.518,0,0,1-3.401.83289l-.07261-.04215a2.27923,2.27923,0,0,1-.84936-3.16633l27.63756-45.73251a2.51722,2.51722,0,0,1,3.33075-.86808v.00007A2.28219,2.28219,0,0,1,948.29163,1706.015Zm72.45392,80.103a4.30692,4.30692,0,0,1-4.40474,4.20192H919.67656a4.20294,4.20294,0,0,1-3.77-6.3748l.0567-.08928a4.453,4.453,0,0,1,3.77-2.0291h87.70462a4.30692,4.30692,0,0,0,4.40474-4.20192V1657.92311a4.30692,4.30692,0,0,0-4.40474-4.20192H819.82475a4.3068,4.3068,0,0,0-4.4046,4.20192v28.00121a4.39972,4.39972,0,0,1-6.55721,3.6657l-.09315-.05085a4.19664,4.19664,0,0,1-2.25271-3.66487v-36.44438a4.30693,4.30693,0,0,1,4.40474-4.20192h205.419a4.30692,4.30692,0,0,1,4.40474,4.20192Z"/>
  </g>
</svg>
