<svg id="b3cecb37-4a16-437e-8a71-596a43441344" xmlns="http://www.w3.org/2000/svg" viewBox="0 0 1401.3 1401.3"><defs><style>.cls-1{fill:#bc77c6;stroke:#bc77c6;}.cls-1,.cls-2,.cls-3,.cls-4{stroke-miterlimit:10;}.cls-2,.cls-3{fill:#cc9ed2;stroke:#cc9ed2;}.cls-2{fill-rule:evenodd;}.cls-4{fill:none;stroke:#dcc5dd;stroke-width:27.35px;}</style></defs><path class="cls-1" d="M1480.77,689.24H782.84c-109.73,0-199,89.26-199,199v697.93c0,109.73,89.27,199,199,199h697.93c109.72,0,199-89.26,199-199V888.23C1679.76,778.5,1590.49,689.24,1480.77,689.24Zm-347,941.77h-.23a396.36,396.36,0,0,1-189.87-48.39L733,1637.87,789.38,1432a396.88,396.88,0,0,1-53.07-198.56c.12-219.05,178.44-397.37,397.48-397.37,106.26.12,206,41.52,281.15,116.56s116.33,174.89,116.21,281C1531,1452.8,1352.83,1631,1133.79,1631Z" transform="translate(-531.17 -436.52)"/><path class="cls-2" d="M1190.47,1182.6c22.65-12.81,32.48-60.5.11-76.63-22.42-11.21-89-7.44-116.55-6.29v88.76C1134.31,1187.64,1157.53,1190.84,1190.47,1182.6Z" transform="translate(-531.17 -436.52)"/><path class="cls-2" d="M1167.93,1253.41c-28.48.34-61.19.34-93.9.34v96.65h81.44c34.65-.11,65.54-16.24,64.74-50.78C1219.64,1267.13,1198,1256.38,1167.93,1253.41Z" transform="translate(-531.17 -436.52)"/><path class="cls-2" d="M1366.77,1002.91A327.76,327.76,0,0,0,1133.31,906c-182.21,0-330.45,148.12-330.45,330.22a329.4,329.4,0,0,0,50.44,175.69l7.9,12.58-33.4,121.82,125-32.83,12.12,7.2a329.3,329.3,0,0,0,168,46h.23c182,0,330.22-148.13,330.33-330.23A327.84,327.84,0,0,0,1366.77,1002.91Zm-201.92,410.86c-34.32,0-82.59.11-138.52.23-13.15,0-19,0-21.73-1.72-4.46-2.63-8.81-4.92-8.81-19.21.11-70.92.23-234.94,0-295.57-.11-38.2-5.15-62.91,28.14-62.91,90,0,221.56-16.93,252.21,57.77,30.88,75.49-19.1,112.09-30.08,131.54C1321.09,1244.94,1325.21,1413.77,1164.85,1413.77Z" transform="translate(-531.17 -436.52)"/><path class="cls-3" d="M1680.81,437h-898c-138.72,0-251.17,112.45-251.17,251.17h0c0,9.33,11.73,13.78,17.69,6.61C605,627.7,689,584.89,782.84,584.89h697.93c167.52,0,303.33,135.81,303.33,303.34v697.93c0,93.8-42.8,177.8-109.9,233.48-7.18,5.95-2.72,17.68,6.6,17.68h0c138.72,0,251.17-112.45,251.17-251.16v-898C1932,549.47,1819.52,437,1680.81,437Z" transform="translate(-531.17 -436.52)"/><path class="cls-4" d="M1415.19,953.13C1340,878.1,1240.3,836.69,1134,836.58c-219,0-397.36,178.32-397.48,397.36a396.83,396.83,0,0,0,53.08,198.57L733.25,1638.4l210.69-55.25a396.35,396.35,0,0,0,189.87,48.38h.23c219,0,397.25-178.2,397.36-397.36.12-106.15-41.17-205.89-116.21-281Z" transform="translate(-531.17 -436.52)"/></svg>