<svg id="b1c6b56f-8a94-4caf-91e9-a55610689f6d" data-name="Capa 1" xmlns="http://www.w3.org/2000/svg" viewBox="0 0 1228.59 1440.8"><defs><style>.a2c09d02-1fde-49d8-821c-309e0ecbe832{fill:#dcc5dd;}</style></defs><g id="b7f451b2-b1af-4520-b7f3-ca93adce1550" data-name="fdc51deb-8172-4dae-9ee0-5b43a364151b"><path class="a2c09d02-1fde-49d8-821c-309e0ecbe832" d="M1249.43,1467.59c-5.32,4.71-11.58,5.62-14,6-61.29,9.57-1117-2.21-1161,0-4.58.23-24,1.9-35-10-6.93-7.48-8.34-17.89-8.1-26.69v-1188A42.28,42.28,0,0,1,73.6,206.67Q648.87,121.83,1224.43,39.59l21-3c3.45,0,6.64.86,9,3,4.94,4.46,4.08,12.72,4,14-1.1,18.88,2.74,1385.16,1,1395a39.66,39.66,0,0,1-2,7C1256.48,1458,1253.93,1463.61,1249.43,1467.59Z" transform="translate(-31.31 -36.59)"/></g></svg>