<svg xmlns="http://www.w3.org/2000/svg" viewBox="0 0 2107 1175">
  <defs>
    <style>
      .ee3639f6-bd5d-4160-b258-8350249568bd {
        fill: #dcc5dd;
      }
    </style>
  </defs>
  <title>pagina web - contacto</title>
  <g id="ba138cf3-1c74-41bd-b716-2ac259e2931a" data-name="elementos graficos">
    <path class="ee3639f6-bd5d-4160-b258-8350249568bd" d="M1612.1001,864.6439c.20654-1.16638.33441-21.4248.40143-56.24218-.465-263.35962-.82679-488.16455-.43958-508.458q-.0054-3.24794-.0108-6.50147c-.32617-2.9165-1.29853-6.40161-3.951-8.79834-2.3628-2.13549-5.55274-2.94946-9-3-.85889.12281-20.14551,2.87793-21,3Q1002.53,366.89232,427.27148,451.7296A42.27157,42.27157,0,0,0,385,494.00108V865.24547a29.96249,29.96249,0,0,0,7.1001,14.39843c11.043,11.90552,30.4126,10.23,35,10,43.95654-2.20337,1099.706,9.56934,1161,0,2.416-.37719,8.67431-1.28393,14-6,4.49609-3.9812,7.04248-9.60144,8-12A40.86587,40.86587,0,0,0,1612.1001,864.6439Z"/>
  </g>
</svg>
