<svg id="Capa_1" data-name="Capa 1" xmlns="http://www.w3.org/2000/svg" viewBox="0 0 84.32 83.47"><defs><style>.cls-1{fill:#cc9ed2;}.cls-2{fill:#bc77c6;}</style></defs><g id="b16a6b4e-8de8-41f3-a7dd-1a240b718801"><path class="cls-1" d="M120.91,110.33c-6.2-10-21.2-30.64-40.12-30.64-17.22,0-31.19,17-38.24,27.7C49.26,99,60.84,87.81,74.81,87.81c16.89,0,30.28,16.35,35.81,24.33a15.42,15.42,0,0,1,0,17.61c-5.53,8-18.92,24.34-35.81,24.34-16.23,0-29.23-15.11-35.13-23.38.3.62.63,1.22,1,1.81,6.2,10,21.2,30.64,40.12,30.64s33.92-20.59,40.12-30.64a21.46,21.46,0,0,0,0-22.19Z" transform="translate(-39.68 -79.69)"/><path class="cls-2" d="M76.37,97.91c-12.64,0-22.66,12.23-26.8,18.21a11.6,11.6,0,0,0-2.06,6.59h0a11.56,11.56,0,0,0,2.06,6.59c4.14,6,14.16,18.22,26.8,18.22S99,135.28,103.17,129.3a11.56,11.56,0,0,0,2.06-6.59h0a11.6,11.6,0,0,0-2.06-6.59C99,110.14,89,97.91,76.37,97.91Zm0,40.59a15.79,15.79,0,1,1,15.79-15.79h0A15.81,15.81,0,0,1,76.37,138.5Z" transform="translate(-39.68 -79.69)"/><path class="cls-2" d="M85.93,124.23a9.12,9.12,0,0,0-7.83-9l7.78,10.06C85.91,124.92,85.93,124.58,85.93,124.23Z" transform="translate(-39.68 -79.69)"/><path class="cls-2" d="M67.68,124.23a9.12,9.12,0,0,0,16.26,5.69l-10.84-14A9.12,9.12,0,0,0,67.68,124.23Z" transform="translate(-39.68 -79.69)"/><rect class="cls-1" x="75.14" y="76.64" width="4.33" height="94.76" rx="2.16" transform="translate(-99.39 -6.51) rotate(-37.71)"/></g></svg>