<svg id="Capa_1" data-name="Capa 1" xmlns="http://www.w3.org/2000/svg" viewBox="0 0 85.75 84.89"><defs><style>.cls-1{fill:#cc9ed2;}.cls-2{fill:#bc77c6;}</style></defs><g id="b3c5f1c1-66a1-449a-9832-233ba440c501"><path class="cls-1" d="M153.09,103.17C146.78,92.94,131.53,72,112.28,72,94.77,72,80.56,89.34,73.4,100.17c6.82-8.53,18.6-19.91,32.81-19.91,17.17,0,30.79,16.62,36.41,24.74a15.71,15.71,0,0,1,0,17.92c-5.62,8.12-19.24,24.74-36.41,24.74-16.51,0-29.74-15.37-35.73-23.77a20.19,20.19,0,0,0,1,1.83C77.79,136,93,156.89,112.28,156.89s34.5-20.94,40.81-31.17a21.84,21.84,0,0,0,0-22.55Z" transform="translate(-70.48 -72)"/><path class="cls-2" d="M106.88,89.22c-12.86,0-23,12.45-27.26,18.53a11.84,11.84,0,0,0-2.1,6.7h0a11.89,11.89,0,0,0,2.1,6.7c4.21,6.08,14.4,18.52,27.26,18.52s23-12.44,27.25-18.52a11.74,11.74,0,0,0,2.1-6.7h0a11.69,11.69,0,0,0-2.1-6.7C129.92,101.67,119.73,89.22,106.88,89.22Zm0,41.28a16,16,0,1,1,16.05-16h0A16.07,16.07,0,0,1,106.88,130.5Z" transform="translate(-70.48 -72)"/><circle class="cls-2" cx="36.4" cy="42.45" r="9.17"/></g></svg>