<svg id="Capa_1" data-name="Capa 1" xmlns="http://www.w3.org/2000/svg" viewBox="0 0 596.3 115.42"><defs><style>.cls-1{fill:#bc77c6;}</style></defs><g id="a37b01ad-4b55-4745-9878-dca78ad8a536"><path class="cls-1" d="M298.48,227.53l2.08-13.15a1.06,1.06,0,0,1,1.05-.89h18.81a13.62,13.62,0,0,0,8.71-2.67,10.86,10.86,0,0,0,4-7.38l.39-2.67,2.41-14.63h-.51a20.82,20.82,0,0,1-7.75,10.75,21.86,21.86,0,0,1-13,3.88q-10.17,0-15.2-7.12t-3.11-19l5.27-33.54a1.07,1.07,0,0,1,.81-.87l17.57-4a1.06,1.06,0,0,1,1.27.8.9.9,0,0,1,0,.4l-5.6,35.34q-.88,5.46,1.59,8.46c1.65,2,4.18,3,7.57,3a11.81,11.81,0,0,0,8.33-3,14.16,14.16,0,0,0,4.13-8.46l5-31.64a1.07,1.07,0,0,1,.81-.87l17.58-4a1.05,1.05,0,0,1,1.28,1.2L351.7,204.08A26.67,26.67,0,0,1,341,222.14q-8.91,6.62-22.39,6.61h-19.1a1.05,1.05,0,0,1-1.06-1.06A.86.86,0,0,1,298.48,227.53Z" transform="translate(-196.81 -113.33)"/><path class="cls-1" d="M388,207.13q-10.56,0-15.77-7.38t-3.18-20L372,162q2.16-12.47,9.61-19.91a24.49,24.49,0,0,1,18-7.44q7.51,0,11.64,3.75t4.26,10.88h.26l1-8.17a1.05,1.05,0,0,1,.81-.9l17.25-3.94a1.06,1.06,0,0,1,1.27.8,1.08,1.08,0,0,1,0,.4L425.39,205a1.06,1.06,0,0,1-1.05.9H408.05A1.06,1.06,0,0,1,407,204.8a.91.91,0,0,1,0-.17l2-12.13h-.39a20.51,20.51,0,0,1-7.69,10.81A21.82,21.82,0,0,1,388,207.13Zm9.54-16.54a12.46,12.46,0,0,0,8.58-3,13.94,13.94,0,0,0,4.27-8.46L413,162.61q.88-5.46-1.59-8.46c-1.66-2-4.22-3-7.7-3a12.38,12.38,0,0,0-8.65,3,14.06,14.06,0,0,0-4.2,8.46l-2.67,16.54q-.89,5.46,1.53,8.46T397.52,190.59Z" transform="translate(-196.81 -113.33)"/><path class="cls-1" d="M745,207.13q-10.54,0-15.77-7.38t-3.18-20L729,162q2.16-12.47,9.6-19.91a24.53,24.53,0,0,1,18-7.44q7.5,0,11.64,3.75t4.26,10.88h.25l1-8.17a1.06,1.06,0,0,1,.82-.9l17.25-3.94a1.06,1.06,0,0,1,1.27.8,1.08,1.08,0,0,1,0,.4L782.41,205a1.05,1.05,0,0,1-1,.9h-16.3A1.07,1.07,0,0,1,764,204.8a.88.88,0,0,1,0-.17l2-12.13h-.38a20.58,20.58,0,0,1-7.7,10.81A21.82,21.82,0,0,1,745,207.13Zm9.54-16.54a12.46,12.46,0,0,0,8.59-3,13.87,13.87,0,0,0,4.26-8.46l2.67-16.54q.88-5.46-1.59-8.46c-1.65-2-4.22-3-7.69-3a12.36,12.36,0,0,0-8.65,3,14,14,0,0,0-4.2,8.46l-2.67,16.54q-.9,5.46,1.52,8.46t7.76,3Z" transform="translate(-196.81 -113.33)"/><path class="cls-1" d="M463.19,207.13q-10.56,0-15.77-7.38t-3.18-20l2.93-17.8q2.16-12.47,9.6-19.91a24.51,24.51,0,0,1,18-7.44q7.5,0,11.64,3.75t4.26,10.88h.25l1-8.17a1.06,1.06,0,0,1,.82-.9L510,136.25a1.06,1.06,0,0,1,1.27.8,1.08,1.08,0,0,1,0,.4L500.6,205a1.06,1.06,0,0,1-1.05.9H483.26a1.07,1.07,0,0,1-1.06-1.06.88.88,0,0,1,0-.17l2-12.13h-.38a20.58,20.58,0,0,1-7.7,10.81A21.82,21.82,0,0,1,463.19,207.13Zm9.54-16.54a12.46,12.46,0,0,0,8.59-3,13.87,13.87,0,0,0,4.26-8.46l2.67-16.54q.88-5.46-1.59-8.46c-1.65-2-4.22-3-7.69-3a12.36,12.36,0,0,0-8.65,3,14,14,0,0,0-4.2,8.46l-2.67,16.54q-.9,5.46,1.52,8.46T472.73,190.59Z" transform="translate(-196.81 -113.33)"/><path class="cls-1" d="M542.88,205.86q-11.19,0-16.85-6.81t-4-18L532,118.27a1.06,1.06,0,0,1,.81-.87l17.61-4a1.05,1.05,0,0,1,1.28,1.2l-10.56,66.5a6.79,6.79,0,0,0,1.21,5.53,6.28,6.28,0,0,0,5.15,2.1h19.11a1.05,1.05,0,0,1,1.06,1.06.86.86,0,0,1,0,.16L565.28,205a1.06,1.06,0,0,1-1,.9Z" transform="translate(-196.81 -113.33)"/><path class="cls-1" d="M604,207.13q-9.28,0-15.64-3.5a20.14,20.14,0,0,1-9.1-9.79q-2.73-6.3-1.46-14.69l2.67-16.54a32.87,32.87,0,0,1,6.17-14.69,32.28,32.28,0,0,1,12.21-9.79,38.91,38.91,0,0,1,16.73-3.5q9.27,0,15.58,3.5a20.22,20.22,0,0,1,9,9.79q2.73,6.3,1.33,14.69l-1.89,11.83a1.06,1.06,0,0,1-1,.89H597.54a1.05,1.05,0,0,0-1,.89l-.49,2.93q-2.16,13.35,10.68,13.35a16.29,16.29,0,0,0,7.44-1.52,9.25,9.25,0,0,0,4-3.64,1.07,1.07,0,0,1,.93-.56h16.45a1.06,1.06,0,0,1,1.06,1.07,1.14,1.14,0,0,1-.1.45,29,29,0,0,1-6.73,9.16,36,36,0,0,1-11.51,7.13A39,39,0,0,1,604,207.13Zm-5.34-44.52-.13.63a1.07,1.07,0,0,0,.84,1.25l.21,0,22.58-.23a1.06,1.06,0,0,0,1-.92l.13-1q2.17-13.37-10-13.36-6.24,0-9.92,3.56t-4.71,10.05Z" transform="translate(-196.81 -113.33)"/><path class="cls-1" d="M648.64,204.63,658.7,141a1.06,1.06,0,0,1,.81-.86l16.91-3.88a1,1,0,0,1,1.27.79,1.13,1.13,0,0,1,0,.41l-1.91,11.8h.51a20.84,20.84,0,0,1,7.76-10.75,21.83,21.83,0,0,1,13-3.88q10.17,0,15.2,7.12t3.12,18.95l-7,44.26a1.07,1.07,0,0,1-1,.9H690.39a1.06,1.06,0,0,1-1.06-1.06,1,1,0,0,1,0-.17l6.67-42q.9-5.46-1.52-8.46c-1.61-2-4.16-3-7.63-3a11.79,11.79,0,0,0-8.33,3,14.18,14.18,0,0,0-4.14,8.46L667.67,205a1.07,1.07,0,0,1-1,.9H649.69a1.06,1.06,0,0,1-1.06-1.06A1,1,0,0,1,648.64,204.63Z" transform="translate(-196.81 -113.33)"/><path class="cls-1" d="M282.61,126.33l-44.54,25a1.06,1.06,0,0,1-1.52-1.29l12.91-35.18a1.06,1.06,0,0,0-.63-1.36,1.11,1.11,0,0,0-.6,0l-19.06,4.38a1.07,1.07,0,0,0-.76.67l-31.54,85.92a1.06,1.06,0,0,0,.63,1.36.94.94,0,0,0,.37.07h17.45a1.06,1.06,0,0,0,1-.7l12-32.6a1.06,1.06,0,0,1,1.36-.63l.15.07,5.71,3.22v.07l47.1,26.42a1,1,0,0,0,1.57-.92V184.07a1,1,0,0,0-.53-.92C279.9,181,257.58,168.48,251,164.93a1.06,1.06,0,0,1-.44-1.42,1,1,0,0,1,.44-.44c6.62-3.56,29-16.19,32.69-18.31a1,1,0,0,0,.53-.92V127.25a1.06,1.06,0,0,0-1.06-1.06A1,1,0,0,0,282.61,126.33Z" transform="translate(-196.81 -113.33)"/></g></svg>