<svg id="Textos_banners" data-name="Textos banners" xmlns="http://www.w3.org/2000/svg" viewBox="0 0 1051.96 762.29"><defs><style>.cls-1{fill:#00285c;}.cls-2{fill:#071838;}</style></defs><path class="cls-1" d="M2017.5,779.71H1185.91A110.19,110.19,0,0,0,1075.72,889.9v57.18a6.44,6.44,0,0,0,11.77,3.64,96.84,96.84,0,0,1,80.18-42.57H1913a97,97,0,0,1,97,97V1449.6a97,97,0,0,1-43.12,80.61,6.43,6.43,0,0,0,3.59,11.79h47a110.19,110.19,0,0,0,110.19-110.19V889.9A110.19,110.19,0,0,0,2017.5,779.71Z" transform="translate(-1075.72 -779.71)"/><path class="cls-2" d="M1938.89,1135.18H1141.8a6.47,6.47,0,0,0-6.47,6.47V1449.6a32.34,32.34,0,0,0,32.34,32.34H1913a32.34,32.34,0,0,0,32.34-32.34V1141.65A6.47,6.47,0,0,0,1938.89,1135.18Zm-521.77,119.7a5.35,5.35,0,0,1-3.29,4.95c-24.4,10.32-58.32,27.07-75.21,35.28a5.36,5.36,0,0,0,0,9.66c16.89,8.16,50.79,24.81,75.19,35a5.36,5.36,0,0,1,3.3,5v30.89a5.37,5.37,0,0,1-7.75,4.82l-112.63-55.84a5.36,5.36,0,0,1-3-4.81v-39.45a5.37,5.37,0,0,1,3-4.81l112.63-56.08a5.37,5.37,0,0,1,7.76,4.82Zm188.75-65.33-82.43,224.57a5.37,5.37,0,0,1-5,3.53h-38.53a5.38,5.38,0,0,1-5-7.23l82.42-224.58a5.38,5.38,0,0,1,5-3.52h38.52A5.38,5.38,0,0,1,1605.87,1189.55Zm181.08,130a5.38,5.38,0,0,1-3,4.81l-112.63,56.08a5.37,5.37,0,0,1-7.77-4.81v-30.57a5.39,5.39,0,0,1,3.3-5c24.39-10.31,58.32-27.06,75.21-35.27a5.36,5.36,0,0,0,0-9.66c-16.89-8.16-50.8-24.81-75.19-35a5.39,5.39,0,0,1-3.31-5V1224.3a5.37,5.37,0,0,1,7.76-4.81L1784,1275.32a5.39,5.39,0,0,1,3,4.82Z" transform="translate(-1075.72 -779.71)"/><path class="cls-2" d="M1945.36,1005.16A32.33,32.33,0,0,0,1913,972.83H1167.67a32.33,32.33,0,0,0-32.34,32.33V1064a6.47,6.47,0,0,0,6.47,6.46h797.09a6.46,6.46,0,0,0,6.47-6.46Zm-739,41.27a24.69,24.69,0,1,1,24.69-24.69A24.69,24.69,0,0,1,1206.37,1046.43Zm79,0a24.69,24.69,0,1,1,24.69-24.69A24.69,24.69,0,0,1,1285.37,1046.43Zm79,0a24.69,24.69,0,1,1,24.69-24.69A24.69,24.69,0,0,1,1364.37,1046.43Z" transform="translate(-1075.72 -779.71)"/></svg>